<?xml version="1.0" encoding="UTF-8" standalone="no"?>
<svg
   width="210mm"
   height="297mm"
   viewBox="0 0 210 297"
   version="1.1"
   id="svg1"
   xml:space="preserve"
   xmlns="http://www.w3.org/2000/svg"
   xmlns:svg="http://www.w3.org/2000/svg"><defs
     id="defs1" /><g
     id="layer2"
     style="display:inline;opacity:1"><g
       id="NA_Alberta"><path
         id="NA_Alberta_p"
         style="display:inline;opacity:1;fill:#ffec2a;fill-opacity:1;fill-rule:evenodd;stroke:none;stroke-width:0"
         d="m 44.006099,32.536515 -16.775203,-1.010274 1.177189,1.842782 -0.03101,2.464449 1.35599,1.263488 -0.73949,1.725477 0.893486,0.431498 -1.853117,1.834513 1.884122,2.910417 -0.308508,1.078487 0.358635,0.799434 14.082344,-0.08682 z" /><text
         xml:space="preserve"
         style="font-style:italic;font-size:2.11667px;font-family:C059;-inkscape-font-specification:'C059 Italic';writing-mode:lr-tb;direction:ltr;display:inline;opacity:1;fill:#000000;fill-rule:evenodd;stroke-width:0"
         x="31.939701"
         y="40.000877"
         id="text3"><tspan
           id="tspan3"
           style="stroke-width:0"
           x="31.939701"
           y="40.000877">Alberta</tspan></text></g><g
       id="NA_Ontario"><path
         id="NA_Ontario_p"
         style="opacity:1;fill:#ffec2a;fill-opacity:1;fill-rule:evenodd;stroke:none;stroke-width:0"
         d="m 56.723153,48.662663 0.184485,-0.775147 -0.283187,-1.067118 0.152445,-1.220081 -0.145727,-1.293461 0.267684,-0.641821 -0.575676,-0.621667 0.0615,-1.60197 -0.98547,-1.355989 -0.955497,0.06201 -1.170988,-1.232483 -1.755965,-0.893485 -0.73949,-1.170988 -1.170988,-0.307992 0.0925,-3.111954 0.501778,-0.910022 -5.972762,0.02945 -0.221692,-0.01344 0.04444,13.253455 6.059579,-0.03721 1.002006,0.522965 1.176672,-0.784448 1.220081,0.566374 0.04341,1.612304 0.74104,0.261483 -0.130742,0.740524 1.394231,0.479557 1.089339,-0.610299 z" /><text
         xml:space="preserve"
         style="font-style:italic;font-size:2.11667px;font-family:C059;-inkscape-font-specification:'C059 Italic';writing-mode:lr-tb;direction:ltr;opacity:1;fill:#000000;fill-rule:evenodd;stroke-width:0"
         x="45.709068"
         y="42.876759"
         id="text4"><tspan
           id="tspan4"
           style="stroke-width:0"
           x="45.709068"
           y="42.876759">Ontario</tspan></text></g><g
       id="NA_EasternCanada"><path
         id="NA_EasternCanada_p"
         style="opacity:1;fill:#ffec2a;fill-opacity:1;fill-rule:evenodd;stroke:none;stroke-width:0"
         d="m 60.359623,31.489034 -0.307991,0.770496 0.338997,1.016992 -1.232483,1.324467 0.246497,1.324983 -0.246497,0.462505 0.461987,2.218469 -0.893485,0.985986 h -0.677995 l -0.461987,0.738973 0.0615,1.294495 0.492993,1.386478 -1.047481,0.86248 -0.19482,-0.210323 -0.267684,0.641821 0.145727,1.293461 -0.152445,1.220081 0.283187,1.067118 -0.184485,0.775147 0.445967,0.706417 2.13527,0.305407 0.435633,1.611788 1.132747,-1.089339 1.699638,0.04393 1.176156,-2.091862 2.110982,0.0186 0.692981,-0.533301 -0.184485,-1.139982 0.893486,-0.800985 1.262972,-0.03101 0.955497,-1.139982 0.893485,0.03101 1.293978,-0.893486 v -0.709 l 0.276986,-0.98547 -1.355473,-0.73949 0.153996,-1.386995 -0.985987,-0.184485 -0.615983,-0.585494 -0.616499,-1.386479 -0.954981,-1.509985 -0.185002,-1.786971 -0.246496,-0.215491 -1.355473,2.094963 -0.800985,0.123507 -0.647505,-0.770496 0.03101,-2.526461 -0.431498,-0.0615 -1.047481,-1.355989 -1.632975,0.307991 z" /><text
         xml:space="preserve"
         style="font-style:italic;font-size:2.11667px;font-family:C059;-inkscape-font-specification:'C059 Italic';writing-mode:lr-tb;direction:ltr;opacity:1;fill:#000000;fill-rule:evenodd;stroke-width:0"
         x="60.65493"
         y="40.698063"
         id="text6"><tspan
           id="tspan6"
           style="stroke-width:0"
           x="60.65493"
           y="40.698063">Eastern</tspan><tspan
           style="stroke-width:0"
           x="60.65493"
           y="43.343899"
           id="tspan7">Canada</tspan></text></g><g
       id="NA_EasternUnitedStates"><path
         id="NA_EasternUnitedStates_p"
         style="display:inline;opacity:1;fill:#ffec2a;fill-opacity:1;fill-rule:evenodd;stroke:none;stroke-width:0"
         d="m 47.927307,45.766199 -0.03979,10.138916 -3.485575,0.436149 0.130741,2.004012 -2.13527,0.871781 0.218075,2.004529 -1.699638,1.220081 0.218074,0.871264 0.348299,1.438155 0.653707,0.479041 0.422197,1.406632 1.070735,-1.316715 0.800985,0.06201 0.801502,-0.770496 1.848466,-0.06149 1.078487,0.400492 0.83199,-0.893485 1.540475,-0.123507 0.585494,0.709001 2.772957,0.153996 v 1.632975 l 0.73949,0.431498 c 0,0 0.185001,1.755776 0.185001,1.971456 0,0.215676 0.554489,0.154513 0.554489,0.154513 l 0.893485,-0.492994 0.307992,-0.955497 -0.12299,-1.447973 -0.370003,-1.571481 0.800984,-0.615983 -0.12299,-1.109493 3.635954,-2.926953 -0.770496,-1.047481 -0.21549,-0.985987 1.201477,0.0615 0.461987,-1.725476 1.694987,-1.478979 0.276986,-1.201477 2.464966,-2.31097 0.370003,0.770495 -0.709001,0.893486 0.73949,0.246496 1.109493,-0.709 0.708484,-1.909961 0.770495,-0.400493 -0.277502,-0.462504 -1.69447,-0.03049 0.369486,-1.047998 -1.139982,-0.276985 0.108004,-0.0832 -2.110982,-0.0186 -1.176156,2.091862 -1.699638,-0.04393 -1.132747,1.089339 -0.435633,-1.611788 -2.13527,-0.305407 -0.522965,-0.827857 -1.089339,0.610299 -1.394231,-0.479557 0.130742,-0.740524 -0.74104,-0.261483 -0.04341,-1.612304 -1.220081,-0.566374 -1.176672,0.784448 -1.002006,-0.522965 z" /><text
         xml:space="preserve"
         style="font-style:italic;font-variant:normal;font-weight:normal;font-stretch:normal;font-size:2.11667px;font-family:C059;-inkscape-font-specification:'C059 Italic';writing-mode:lr-tb;direction:ltr;fill:#000000;stroke-width:0.264583"
         x="48.544849"
         y="53.034397"
         id="text9"><tspan
           id="tspan9"
           style="stroke-width:0.264583"
           x="48.544849"
           y="53.034397">Eastern United </tspan><tspan
           style="stroke-width:0.264583"
           x="48.544849"
           y="55.680233"
           id="tspan10">States</tspan></text></g><g
       id="NA_CentralAmerica"><path
         id="NA_CentralAmerica_p"
         style="display:inline;opacity:1;fill:#ffec2a;fill-opacity:1;fill-rule:evenodd;stroke:none;stroke-width:0"
         d="m 41.478605,64.7361 -1.041797,-0.115755 -2.658235,-1.873787 -1.960604,0.304891 -1.264006,-1.132748 -2.004012,-0.653707 -1.688786,0.428398 0.874366,0.299206 0.401009,1.201478 0.584977,1.57148 0.277502,2.218469 1.293978,1.540475 0.0615,1.756481 1.201994,1.293978 0.369486,-0.246496 -0.122989,-1.324984 -0.492994,-0.800985 0.0925,-0.307991 -0.492993,-2.279964 0.893486,2.310453 1.509468,1.386479 -0.307991,1.848982 0.985986,1.139982 h 0.893485 c 0,0 1.571226,1.078167 1.694471,1.108977 0.123246,0.03081 1.540991,0.0925 1.540991,0.0925 l 1.139982,2.711463 0.03049,1.509985 0.770496,0.677478 -0.277503,0.677995 0.862997,0.924491 0.708484,-0.0615 0.677994,0.184485 -0.03101,0.73949 0.770496,0.153996 -0.03101,-0.769979 0.307992,0.523482 1.355989,-1.940967 h -2.002978 l -0.708484,-0.492993 -0.369487,-1.417484 1.170472,0.03101 0.616499,-0.677995 0.153996,-1.355473 -1.293978,-1.940967 1.232483,-0.770495 -0.06201,-1.386479 0.431498,-1.355473 -1.848466,-0.123507 -1.170988,1.201477 -2.187464,-0.646988 -0.585493,-1.817977 0.369486,-1.940967 0.408244,-0.501262 -0.422197,-1.406632 -0.653707,-0.479041 z" /><path
         style="display:inline;opacity:1;fill:#ffec2a;fill-opacity:1;stroke-width:0.264583"
         d="m 58.884737,73.520138 1.949934,0.05991 1.154711,0.103489 0.76799,0.25055 0.196083,-0.05447 -0.04357,0.51744 -0.294124,0.05991 -0.272335,0.484759 c 0,0 -0.283231,0.11983 -0.326806,0.11983 -0.04357,0 -0.5828,0.08715 -0.5828,0.08715 l -0.789779,-0.163402 -1.269092,0.174297 -0.729864,-0.125275 0.163404,-0.675396 -0.305017,-0.419399 0.29957,-0.147064 -0.03268,-0.18519 z"
         id="path57" /><text
         xml:space="preserve"
         style="font-style:italic;font-variant:normal;font-weight:normal;font-stretch:normal;font-size:2.11667px;font-family:C059;-inkscape-font-specification:'C059 Italic';writing-mode:lr-tb;direction:ltr;display:inline;opacity:1;fill:#000000;stroke-width:0.264583"
         x="39.931614"
         y="73.207962"
         id="text13"><tspan
           id="tspan13"
           style="stroke-width:0.264583"
           x="39.931614"
           y="73.207962">Mexico</tspan></text></g><g
       id="NA_WesternUnitedStates"><path
         id="NA_WesternUnitedStates_p"
         style="display:inline;opacity:1;fill:#ffec2a;fill-opacity:1;fill-rule:evenodd;stroke:none;stroke-width:0"
         d="m 47.927307,45.766199 -17.95911,0.110587 0.442867,0.987537 -0.555005,1.201477 -0.615983,4.713924 -0.585494,1.294495 0.523999,0.585494 -0.338998,1.293978 1.725476,5.638415 0.296106,0.101286 1.688786,-0.428398 2.004012,0.653707 1.264006,1.132748 1.960604,-0.304891 2.658235,1.873787 1.041797,0.115755 -0.344682,-1.423169 -0.218074,-0.871264 1.699638,-1.220081 -0.218075,-2.004529 2.13527,-0.871781 -0.130741,-2.004012 3.485575,-0.436149 z" /><text
         xml:space="preserve"
         style="font-style:italic;font-variant:normal;font-weight:normal;font-stretch:normal;font-size:2.11667px;font-family:C059;-inkscape-font-specification:'C059 Italic';writing-mode:lr-tb;direction:ltr;display:inline;opacity:1;fill:#000000;stroke-width:0.264583"
         x="31.550905"
         y="51.208599"
         id="text11"><tspan
           id="tspan11"
           style="stroke-width:0.264583"
           x="31.550905"
           y="51.208599">Western United </tspan><tspan
           style="stroke-width:0.264583"
           x="31.550905"
           y="53.854435"
           id="tspan12">States</tspan></text></g><g
       id="NA_Greenland"><path
         style="opacity:1;fill:#ffec2a;fill-opacity:1;fill-rule:evenodd;stroke:none;stroke-width:0"
         d="m 75.208626,10.022007 1.350791,0.130722 1.568664,-0.4357398 2.570861,1.1764968 1.394368,0.174296 0.78433,0.915052 1.350791,-0.217869 0.522888,0.610035 -2.396567,0.479313 -0.435739,0.610036 h 2.135124 l 1.263644,-0.740758 2.52729,0.08715 -1.52509,1.568662 -1.132922,2.483715 1.132922,1.568662 -0.87148,1.307218 1.263645,0.740757 -0.08715,0.740757 -1.08935,0.522888 -0.04357,1.045774 -1.0022,-0.217869 -0.827905,-0.740757 0.958625,1.263644 0.74076,0.174296 -0.30502,0.740757 0.566462,0.784331 -1.132922,1.350792 -0.871479,-1.089349 -1.263645,0.08715 1.350793,1.43794 -2.963029,2.004401 -0.697182,-0.43574 0.348591,0.740757 -3.31162,2.483715 V 30.28389 l -0.958625,1.830105 -1.394367,2.396569 -0.174297,2.788732 -2.919452,-0.871479 -0.08715,-1.394367 -1.132922,-1.0022 0.740757,-0.740756 -1.002202,0.13072 -0.479314,-1.0022 0.392168,-0.958627 h -0.871479 v -1.394365 l 0.91505,0.04357 -0.392165,-1.307217 0.479314,-1.002202 -1.612236,-0.697182 0.174297,-0.392165 h 1.22007 l -0.174296,-1.002201 -0.87148,0.04357 -0.435739,-1.699383 -0.784331,-1.437941 0.348591,-0.392165 -0.348591,-0.522887 -1.220071,0.174295 -0.827905,-1.263644 -1.22007,1.220071 -0.56646,-0.479314 -1.612236,0.261444 -0.827905,-1.786532 1.350793,-0.435739 -1.132924,-0.610035 0.217871,-0.958627 1.307219,0.305017 0.697182,-0.261443 -0.740756,-0.610035 0.348591,-0.65361 1.307219,-0.479313 0.740756,-1.132923 1.176496,-1.089348 1.089348,0.348591 0.653611,-0.653609 1.525087,0.174296 0.915051,-0.697183 1.481516,-0.08715 -0.04357,-1.22007 1.22007,-0.653609 0.827905,0.261443 z"
         id="NA_Greenland_p" /><text
         xml:space="preserve"
         style="font-style:italic;font-size:2.11667px;font-family:C059;-inkscape-font-specification:'C059 Italic';writing-mode:lr-tb;direction:ltr;display:inline;opacity:1;fill:#000000;fill-rule:evenodd;stroke-width:0"
         x="70.807655"
         y="21.133364"
         id="text5"><tspan
           id="tspan5"
           style="stroke-width:0"
           x="70.807655"
           y="21.133364">Greenland</tspan></text></g><g
       id="SA_Venezuela"><path
         id="SA_Venezuela_p"
         style="display:inline;opacity:1;fill:#ff782a;fill-opacity:1;fill-rule:evenodd;stroke:none;stroke-width:0"
         d="m 53.160063,77.670711 -1.743046,1.241785 -1.111044,-0.109037 -1.263488,1.111043 -0.637688,-0.06666 -1.355989,1.902727 0.512113,0.516764 0.109037,1.154968 -0.37052,0.54467 0.130742,1.459859 -1.154452,0.892969 -0.0093,0.118856 1.991609,1.754931 1.111044,-0.06511 0.305407,0.588078 1.655713,-0.109038 0.631486,0.893486 0.74104,0.304891 1.089339,-0.261483 0.566374,-0.871265 -0.522965,-0.566373 0.522965,-0.980819 0.08733,-0.762227 1.067635,-0.501262 0.806153,0.37052 0.413928,0.631486 1.306897,-0.762227 -0.239779,-1.438155 1.394747,0.06563 1.677417,-1.198377 1.089339,0.936894 0.0217,1.437639 1.416451,0.283186 1.720826,0.109038 0.566373,-0.71882 2.222604,0.152446 1.251603,-2.094963 -1.186491,-0.08371 -1.524971,-1.198377 -1.852084,-0.04341 v -0.566383 l -1.002,-1.045931 h -1.176672 l -0.675411,-0.784448 -0.892969,-1.481563 -0.958598,0.697115 -0.413928,-0.04341 -0.827856,-0.479041 -0.392225,0.239262 -0.806152,0.02222 -0.610299,-0.697632 -2.069641,-0.17415 0.435633,0.261483 0.06563,1.132747 -0.697115,0.152446 -0.522966,-0.783932 0.632003,-0.871781 z" /><text
         xml:space="preserve"
         style="font-style:italic;font-variant:normal;font-weight:normal;font-stretch:normal;font-size:2.11667px;font-family:C059;-inkscape-font-specification:'C059 Italic';writing-mode:lr-tb;direction:ltr;display:inline;opacity:1;fill:#000000;stroke-width:0.264583"
         x="50.037766"
         y="83.067619"
         id="text14"><tspan
           id="tspan14"
           style="stroke-width:0.264583"
           x="50.037766"
           y="83.067619">Venezuela</tspan></text></g><g
       id="SA_Argentina"><path
         id="SA_Argentina_p"
         style="opacity:1;fill:#ff782a;fill-opacity:1;fill-rule:evenodd;stroke:none;stroke-width:0"
         d="m 69.606087,112.94608 -1.129647,-0.15503 -0.239778,-0.58808 -1.089339,0.0868 -0.283187,-1.52497 -0.740524,0.0434 -0.436149,-0.3483 2.026233,-2.46186 -2.331124,0.0651 -1.089339,0.632 -0.566373,-0.67541 0.544669,-0.6103 -0.239779,-1.91719 -1.132747,0.15296 -0.718819,-0.45785 -2.070158,-0.0868 -0.675411,-0.93689 -1.503267,-0.15245 -0.391708,0.93638 -0.501261,0.10904 -1.220081,-1.3069 -0.239778,-1.78645 -2.13527,-0.47956 -3.303675,-2.557469 0.07958,0.792717 2.134753,1.873792 1.76475,0.80615 -0.130741,2.26549 0.392224,0.37052 0.152446,1.32912 -0.65319,1.28519 -0.130742,0.32711 0.326595,0.69712 0.04341,3.15898 -0.283186,0.21807 -0.17415,1.24179 -0.17415,1.24178 0.413929,0.0873 -0.0217,0.78393 -0.218075,0.28319 -0.566374,4.31394 0.479041,0.69712 0.06563,0.32711 -0.327112,0.17415 -0.04341,1.02371 0.239779,0.15296 0.04341,0.87127 -0.283187,0.15244 0.06563,1.78646 -0.327112,0.15244 -0.08682,0.34882 0.588078,0.37052 -0.152446,1.56838 0.980302,0.9803 -0.19637,1.19838 2.375048,2.00453 1.982825,0.78444 -0.174666,1.04594 0.392224,0.17414 1.198376,-0.17414 1.198377,1.11104 1.045931,-0.0217 0.195853,0.26097 0.588078,0.17467 0.413929,-0.63201 1.350821,-0.30489 0.06563,-0.43563 -1.982825,-0.52296 -0.348299,-0.89349 -1.568897,-0.65371 -0.501261,-0.71882 -0.457337,-2.46186 0.827857,-1.41594 -0.218075,-1.45986 0.392224,-0.632 -0.174149,-0.71882 -0.632003,-0.13074 -0.06511,-0.76274 1.307413,-1.80816 -0.610298,-0.47956 0.04341,-0.93638 0.239779,-0.10903 0.718819,0.71882 0.130741,-0.76275 1.525488,-1.74253 0.435633,0.23927 0.892969,0.0656 1.830379,-1.67741 -0.697115,-0.74104 v -0.56638 l -0.806153,-0.15244 -0.152445,-0.6103 0.762227,-0.0217 0.152446,0.26148 0.936893,0.0434 0.697116,-0.58808 0.936893,0.34881 z" /><text
         xml:space="preserve"
         style="font-style:italic;font-variant:normal;font-weight:normal;font-stretch:normal;font-size:2.11667px;font-family:C059;-inkscape-font-specification:'C059 Italic';writing-mode:lr-tb;direction:ltr;display:inline;opacity:1;fill:#000000;stroke-width:0.264583"
         x="55.707066"
         y="113.13958"
         id="text15"><tspan
           id="tspan15"
           style="stroke-width:0.264583"
           x="55.707066"
           y="113.13958">Argentina</tspan></text></g><g
       id="SA_Peru"><path
         id="SA_Peru_p"
         style="opacity:1;fill:#ff782a;fill-opacity:1;fill-rule:evenodd;stroke:none;stroke-width:0"
         d="m 67.331291,108.00891 0.238228,-0.19947 -1.648478,-3.55896 -0.770496,-0.30799 -0.01499,-1.70997 -0.677995,-0.13901 -0.600997,-2.526461 -1.031978,-0.153996 -0.307992,-1.139982 -0.785998,-0.83199 -1.386479,-0.0155 -0.862479,-0.816488 -0.970484,0.153996 -0.801501,-1.185974 -1.016476,-0.307992 -0.893485,0.677478 -0.508496,-0.384989 -0.693498,0.338997 -0.184485,0.785482 h -1.140499 l 0.03101,-1.170471 0.508496,-0.200505 0.04599,-0.492993 -0.893485,-0.446484 -1.00149,1.000972 -2.464449,-3.604948 1.093474,-0.184485 0.0925,-1.864485 0.754992,0.154512 0.580843,-0.351916 -0.05891,-0.02429 -0.631486,-0.893486 -1.655713,0.109038 -0.305407,-0.588078 -1.111044,0.06511 -1.991609,-1.754931 -0.03462,0.447517 -1.067635,1.416451 -0.239262,1.437639 0.71882,0.610298 -0.54467,0.71882 0.08733,1.852083 0.871265,0.566374 0.392224,1.111043 3.681946,4.248836 0.0078,0.07855 3.303675,2.557468 2.13527,0.47956 0.239778,1.78645 1.220081,1.3069 0.501261,-0.10904 0.391708,-0.93638 1.503267,0.15245 0.675411,0.93689 2.070158,0.0868 0.718819,0.45785 1.132747,-0.15296 0.239779,1.91719 -0.544669,0.6103 0.566373,0.67541 1.089339,-0.632 z" /><text
         xml:space="preserve"
         style="font-style:italic;font-variant:normal;font-weight:normal;font-stretch:normal;font-size:2.11667px;font-family:C059;-inkscape-font-specification:'C059 Italic';writing-mode:lr-tb;direction:ltr;display:inline;opacity:1;fill:#000000;stroke-width:0.264583"
         x="54.289742"
         y="99.644173"
         id="text16"><tspan
           id="tspan16"
           style="stroke-width:0.264583"
           x="54.289742"
           y="99.644173">Peru</tspan></text></g><g
       id="SA_Brazil"><path
         id="SA_Brazil_p"
         style="opacity:1;fill:#ff782a;fill-opacity:1;fill-rule:evenodd;stroke:none;stroke-width:0"
         d="m 60.87277,83.531335 -1.677417,1.198377 -1.394747,-0.06563 0.239779,1.438155 -1.306897,0.762227 -0.413928,-0.631486 -0.806153,-0.37052 -1.067635,0.501262 -0.08733,0.762227 -0.522965,0.980819 0.522965,0.566373 -0.566374,0.871265 -1.089339,0.261483 -0.682129,-0.280603 -0.580843,0.351916 -0.754992,-0.154512 -0.0925,1.864485 -1.093474,0.184485 2.464449,3.604948 1.00149,-1.000972 0.893485,0.446484 -0.04599,0.492993 -0.508496,0.200505 -0.03101,1.170471 h 1.140499 l 0.184485,-0.785482 0.693498,-0.338997 0.508496,0.384989 0.893485,-0.677478 1.016476,0.307992 0.801501,1.185974 0.970484,-0.153996 0.862479,0.816488 1.386479,0.0155 0.785998,0.83199 0.307992,1.139982 1.031978,0.153996 0.600997,2.526465 0.677995,0.13901 0.01499,1.70997 0.770496,0.30799 1.648478,3.55896 -0.238228,0.19947 0.382405,-0.0109 -2.026233,2.46186 0.436149,0.3483 0.740524,-0.0434 0.283187,1.52497 1.089339,-0.0868 0.239778,0.58808 1.129647,0.15503 2.181779,-3.51038 -0.06511,-1.56838 1.372526,-1.9172 1.852083,-0.0439 2.222087,-1.39423 -0.0217,-0.78445 0.609782,-0.91467 0.436149,-0.0873 0.500744,-0.93689 -0.522965,-0.23978 0.958598,-1.54668 -0.413929,-1.241784 0.522966,-1.350822 0.719336,-1.154968 0.326595,-0.871265 1.285193,-0.958598 0.109037,-3.747574 H 80.74237 l -2.723348,-1.655713 -1.002006,0.06563 -0.261482,-0.54467 -1.634009,0.0217 -2.701644,-1.372526 -0.718819,0.588078 -0.54467,0.130741 -0.566373,-0.413928 0.370003,-1.045931 -1.743046,-2.810164 -0.05529,-0.0036 -1.251603,2.094963 -2.222604,-0.152446 -0.566373,0.71882 -1.720826,-0.109038 -1.416451,-0.283186 -0.0217,-1.437639 z" /><text
         xml:space="preserve"
         style="font-style:italic;font-variant:normal;font-weight:normal;font-stretch:normal;font-size:2.11667px;font-family:C059;-inkscape-font-specification:'C059 Italic';writing-mode:lr-tb;direction:ltr;fill:#000000;stroke-width:0.264583"
         x="65.566727"
         y="94.098114"
         id="text17"><tspan
           id="tspan17"
           style="stroke-width:0.264583"
           x="65.566727"
           y="94.098114">Brazil</tspan></text></g><g
       id="AU_WesternAustralia"><path
         id="AU_WesternAustralia_p"
         style="opacity:1;fill:#410083;fill-opacity:1;fill-rule:evenodd;stroke:none;stroke-width:0"
         d="m 190.41318,136.26817 0.22273,-13.99966 -7.66878,-0.26149 -0.48835,-10.02729 -0.69143,0.60513 0.031,-0.86248 -1.17099,-0.55449 -1.29398,1.44798 -0.33899,-0.154 -0.98599,1.44797 -0.89349,-0.30799 -1.41748,2.43396 -0.49299,-0.12299 -1.20148,0.92398 -0.92449,-0.12299 -0.7705,0.95498 -0.76998,0.0925 -0.77049,0.55449 -0.80099,0.031 -0.40049,0.86248 0.46199,1.47898 -0.43098,0.154 -0.031,1.94148 -0.40049,-0.55449 -0.40049,0.70849 0.70848,1.13998 -0.0615,0.86248 0.83199,1.60248 -0.4005,0.73949 0.2465,2.18747 -0.67799,0.95498 c 0,0 0.24659,1.07875 0.33899,1.20199 0.0924,0.12325 1.41697,0.83199 1.41697,0.83199 l 0.709,0.092 0.27699,-0.52349 c 0,0 0.70861,0.185 0.89348,0.185 0.18487,0 0.6165,-0.77049 0.6165,-0.77049 h 0.95498 l 0.524,-0.678 2.15698,-0.73949 0.52348,0.80099 1.54047,-0.092 0.154,-1.32499 1.63349,-0.1235 1.10898,-0.67748 2.61896,0.18448 c 0,0 1.54074,2.52698 1.66398,2.52698 0.12325,0 0.64699,-0.863 0.64699,-0.863 l 0.86248,-0.4315 0.2775,-1.41696 0.21549,1.38648 -0.89348,0.70848 -0.4315,1.29398 0.89348,-0.2465 0.062,0.709 -0.92449,0.61598 -0.80098,0.308 0.185,0.4625 0.86248,0.154 0.2775,-0.37001 -0.062,-0.46198 0.678,-0.4005 0.55448,1.04748 -0.55448,1.017 z" /><text
         xml:space="preserve"
         style="font-style:italic;font-variant:normal;font-weight:normal;font-stretch:normal;font-size:2.11667px;font-family:C059;-inkscape-font-specification:'C059 Italic';writing-mode:lr-tb;direction:ltr;fill:#000000;fill-opacity:1;stroke-width:0.264583"
         x="172.98857"
         y="123.83714"
         id="text33"><tspan
           id="tspan33"
           style="stroke-width:0.264583"
           x="172.98857"
           y="123.83714">Western </tspan><tspan
           style="stroke-width:0.264583"
           x="172.98857"
           y="126.48298"
           id="tspan34">Australia</tspan></text></g><g
       id="AU_EasternAustralia"><path
         id="AU_EasternAustralia_p"
         style="opacity:1;fill:#410083;fill-opacity:1;fill-rule:evenodd;stroke:none;stroke-width:0"
         d="m 183.60533,108.11743 -1.01699,0.61598 1.32498,0.80099 -0.30799,0.64751 -0.64699,0.27698 -0.185,1.26349 -0.29456,0.25735 0.48835,10.02729 7.66878,0.26149 -0.22273,13.99966 0.18604,0.13384 0.98599,-0.67748 -0.18449,-0.83199 0.64699,-0.30799 0.55449,1.26297 0.80098,0.12351 1.44798,-1.202 h 0.894 l 1.50947,-0.73948 0.21549,-1.94097 3.17396,-4.03645 -0.0925,-1.29398 0.86248,-1.57148 0.2465,-1.84846 -0.52348,-0.678 0.185,-1.20147 -2.06448,-3.23547 -0.43149,0.062 -0.21549,0.83147 -0.4315,-1.04748 0.30799,-1.81798 -1.91048,-0.61598 0.15451,-1.47898 -0.43149,-0.30799 0.0615,-0.678 -0.70848,-0.61598 0.0305,-0.67799 -0.55449,-0.5855 -0.46199,0.6165 -0.4625,-0.524 -0.0615,-0.46199 0.5855,-0.1235 -0.0925,-0.98599 -0.64698,-0.27698 -0.0305,-0.83199 -0.6165,0.24649 -0.0925,0.73949 -0.67748,1.07797 0.12299,0.92449 -0.64699,1.1095 -0.30799,1.10897 -0.7705,0.031 -1.44797,-1.41749 -1.202,-0.89348 1.1095,-1.29398 0.98598,0.154 -0.1235,-0.493 0.37,-0.709 -1.29398,0.40101 -0.2775,-0.67799 -2.34146,0.0615 -1.17099,-0.77049 0.21549,1.04799 -0.49299,0.4005 -0.80098,-0.21601 -0.154,-0.43098 0.49299,-0.55501 -0.37,-0.40049 z" /><text
         xml:space="preserve"
         style="font-style:italic;font-variant:normal;font-weight:normal;font-stretch:normal;font-size:2.11667px;font-family:C059;-inkscape-font-specification:'C059 Italic';writing-mode:lr-tb;direction:ltr;fill:#000000;fill-opacity:1;stroke-width:0.264583"
         x="186.23503"
         y="117.47535"
         id="text28"><tspan
           style="stroke-width:0.264583"
           x="186.23503"
           y="117.47535"
           id="tspan29">Eastern</tspan><tspan
           style="stroke-width:0.264583"
           x="186.23503"
           y="120.12119"
           id="tspan30">Australia</tspan></text></g><g
       id="AU_NewGuinea"><path
         style="opacity:1;fill:#410083;fill-opacity:1;fill-rule:evenodd;stroke:none;stroke-width:0"
         d="m 177.96682,95.85436 1.94112,-0.338926 0.64704,-0.677849 0.58542,0.06162 0.2773,0.677852 1.38652,0.03081 0.67785,1.787065 0.58542,-0.154059 0.98596,-1.417326 0.64704,0.06162 0.64704,-0.585417 1.35571,0.123246 0.73947,0.431358 0.52379,1.047589 h 0.30812 l 0.36974,0.492985 0.98596,-0.03081 0.67785,0.801098 1.01678,0.369736 0.12325,1.540578 1.47895,1.0784 -0.33893,0.95515 0.61623,0.70866 -0.15406,0.83191 0.67785,0.83191 -0.12324,1.75625 -1.47895,-0.2773 -0.92435,-0.0616 -1.60219,-2.06437 -0.86272,1.10921 -0.86272,0.12325 h -0.95515 l -0.33893,-0.40055 -0.21568,0.36974 -0.70866,0.0308 -1.20165,-0.98597 -1.41732,-0.33892 -0.40055,-0.73948 0.36973,-1.04759 -0.30811,-1.26326 -1.47895,-1.324897 h -0.55461 l -0.92434,0.739477 -1.26327,-1.170838 1.23246,-0.369736 -0.61623,-0.40055 -0.67785,0.03081 -0.0616,-1.232458 z"
         id="AU_NewGuinea1_p" /><path
         style="display:inline;opacity:1;fill:#410083;fill-opacity:1;fill-rule:evenodd;stroke:none;stroke-width:0"
         d="m 199.65807,97.456555 1.04759,-0.123246 0.36974,0.523796 -0.46218,0.801095 0.5238,0.893532 -0.46217,0.431361 -1.10921,-0.03081 -0.8011,1.016777 -1.63301,0.0308 -0.52379,0.36974 -0.95515,-0.5238 0.33892,-0.2773 1.10921,-0.0924 1.14003,-0.985968 0.8319,-0.40055 0.58542,0.06162 0.36974,-0.369737 -0.46217,-0.831911 z"
         id="AU_NewGuinea2_p" /><text
         xml:space="preserve"
         style="font-style:italic;font-variant:normal;font-weight:normal;font-stretch:normal;font-size:2.11667px;font-family:C059;-inkscape-font-specification:'C059 Italic';writing-mode:lr-tb;direction:ltr;fill:#000000;fill-opacity:1;stroke-width:0.264583"
         x="184.84067"
         y="99.784332"
         id="text27"><tspan
           id="tspan27"
           style="stroke-width:0.264583"
           x="184.84067"
           y="99.784332">New</tspan><tspan
           style="stroke-width:0.264583"
           x="184.84067"
           y="102.43017"
           id="tspan35">Guinea</tspan></text></g><g
       id="AU_Indonesia"><path
         style="opacity:1;fill:#410083;fill-opacity:1;fill-rule:evenodd;stroke:none;stroke-width:0"
         d="m 158.89455,99.490111 0.86272,0.338926 0.67785,-0.06162 0.36974,0.831903 0.64704,0.0308 1.66381,1.6022 0.77029,-0.0616 1.23246,1.66382 0.92434,0.0308 0.86272,-0.95515 0.0924,-1.10921 1.26327,-0.12325 1.04759,-1.54057 0.64704,-0.0616 1.23246,-1.756249 0.36974,-0.123246 0.0616,-0.893532 0.8011,-0.06162 0.2773,-0.739474 0.73947,0.123246 0.0924,0.739473 2.31085,0.801098 -0.67785,0.647041 -0.0924,0.862719 h -0.98597 l -0.12324,0.523794 0.40055,0.18487 -0.64704,0.58542 0.40054,1.17083 0.12325,0.98597 -0.67785,1.0784 0.92434,0.36973 0.46217,-0.64703 -0.12324,-0.8011 2.21842,-0.0616 1.41733,-0.95515 0.43136,0.86272 -0.92435,0.83191 -1.81787,0.12325 -0.64704,0.46217 0.30811,0.5546 1.35571,0.0924 0.2773,0.52379 -0.18487,0.36974 -1.32489,0.0616 0.89353,1.20165 -0.15406,1.0784 0.86272,0.92434 -0.0308,0.46217 -1.44813,0.61623 -0.92435,-1.23246 0.43136,-1.60219 -0.49298,-0.46217 -0.61623,0.33892 -0.21568,0.86272 0.86272,1.10921 -0.70866,1.01678 -0.77029,-0.12324 -0.24649,-1.17084 -0.43136,-0.67785 0.49298,-0.89353 v -1.14002 l -0.52379,-0.21569 -1.38651,2.98871 -1.38652,-0.0924 -0.36974,-0.58542 -1.20164,-0.33892 -0.86272,-0.58542 -0.49298,-1.44814 h -1.41733 l 1.14002,0.83191 -0.0924,0.77029 2.03355,1.47895 -0.18487,0.86272 -1.38651,-0.70867 0.18487,1.75626 0.36973,0.46217 -1.01677,0.77028 -1.97193,-1.29408 -0.98597,-1.47895 -0.43136,-1.50976 -0.67785,-0.95515 h -0.67785 l -0.73948,-0.89353 0.0924,-1.41733 -0.64704,-1.29408 -0.12325,-0.67785 -2.03355,-1.97193 z"
         id="AU_Indonesia1_p" /><path
         style="display:inline;opacity:1;fill:#410083;fill-opacity:1;fill-rule:evenodd;stroke:none;stroke-width:0"
         d="m 170.31018,110.45898 1.6022,0.12324 0.5546,0.57002 0.5392,-0.0462 1.44814,0.8011 0.83191,0.0308 0.46217,0.50839 0.29271,-0.41596 1.74085,0.0462 -0.43136,0.64704 -1.10922,0.0924 -0.2773,-0.32352 -0.49298,0.0308 -0.35433,0.35433 -0.40055,0.36973 -0.92434,-0.32352 -0.61623,0.30812 -0.29271,0.24649 -1.27868,-0.0308 -0.35433,-0.5392 -1.58679,-0.0308 -0.49298,0.36973 -0.98596,-0.077 -0.40055,-0.60082 0.16946,-0.21568 0.32352,0.0462 0.8165,-0.64704 -0.20027,-0.55461 0.46217,-0.0924 z"
         id="AU_Indonesia2_p" /><text
         xml:space="preserve"
         style="font-style:italic;font-variant:normal;font-weight:normal;font-stretch:normal;font-size:2.11667px;font-family:C059;-inkscape-font-specification:'C059 Italic';writing-mode:lr-tb;direction:ltr;fill:#000000;fill-opacity:1;stroke-width:0.264583"
         x="-13.125597"
         y="199.7556"
         id="text26"
         transform="rotate(-61.594837)"><tspan
           id="tspan26"
           style="stroke-width:0.264583"
           x="-13.125597"
           y="199.7556">Indonesia</tspan></text></g><g
       id="AF_Madagascar"><path
         style="opacity:1;fill:#a52300;fill-opacity:1;fill-rule:evenodd;stroke:none;stroke-width:0"
         d="m 129.7632,119.10937 0.71897,0.32681 1.1765,-0.0218 0.21787,-0.34859 0.6754,-0.43574 0.45752,0.0218 0.37038,-0.34859 -0.0436,-0.95863 1.54687,-0.0654 0.0218,-0.89327 1.06756,-0.98041 0.28323,0.95862 0.45753,0.3486 -0.3486,0.76254 0.43574,0.43574 -0.17429,0.80612 -0.37038,0.19608 -0.58825,-0.61003 0.21787,0.91505 -0.21787,1.30722 -0.3268,0.3268 0.34859,1.11114 -0.87148,1.24185 v 1.19829 l -0.93684,0.78433 -0.0872,0.8279 -1.37258,2.98482 -0.91505,0.63182 -0.98041,-0.0436 -0.78434,0.80612 -0.98041,-0.0654 -0.87148,-0.41395 0.0436,-1.93904 -0.54468,-0.80612 0.0218,-0.61003 1.1765,-1.37258 0.0218,-1.41615 0.69718,-0.76255 -0.95863,-1.5033 0.52289,-1.28543 z"
         id="AF_Madagascar_p" /><text
         xml:space="preserve"
         style="font-style:italic;font-variant:normal;font-weight:normal;font-stretch:normal;font-size:2.11667px;font-family:C059;-inkscape-font-specification:'C059 Italic';writing-mode:lr-tb;direction:ltr;fill:#000000;fill-opacity:1;stroke-width:0.264583"
         x="-50.4949"
         y="175.66542"
         id="text18"
         transform="rotate(-61.239)"><tspan
           id="tspan18"
           style="fill:#000000;fill-opacity:1;stroke-width:0.264583"
           x="-50.4949"
           y="175.66542">Madagascar</tspan></text></g><g
       id="AF_Egypt"><path
         id="AF_Egypt_p"
         style="opacity:1;fill:#a52300;fill-opacity:1;fill-rule:evenodd;stroke:none;stroke-width:0"
         d="m 105.58322,78.284627 -0.26975,8.203117 2.58795,0.86248 0.27751,0.893485 0.46198,-0.03049 1.1095,-0.523999 1.13998,0.6165 0.76998,0.03049 0.185,1.109493 0.98599,0.0615 0.40049,1.047481 1.38648,0.03101 0.64699,-0.585494 0.062,-1.078487 2.00246,-0.615983 0.55449,0.400492 5.33869,-0.416512 -0.78031,-1.664498 -1.13275,-1.198376 0.17415,-0.980302 -0.19586,-0.828373 -1.17667,-2.526978 -0.74052,-0.174149 -2.5275,0.435632 -1.13274,-0.610299 -2.81068,0.04393 -1.19838,0.740524 -1.72083,-0.849561 -1.5906,-0.06563 -1.63401,-1.655713 -0.71933,-0.217558 z" /><text
         xml:space="preserve"
         style="font-style:italic;font-variant:normal;font-weight:normal;font-stretch:normal;font-size:2.11667px;font-family:C059;-inkscape-font-specification:'C059 Italic';writing-mode:lr-tb;direction:ltr;fill:#000000;fill-opacity:1;stroke-width:0.264583"
         x="111.2007"
         y="85.666374"
         id="text25"><tspan
           id="tspan25"
           style="stroke-width:0.264583"
           x="111.2007"
           y="85.666374">Egypt</tspan></text></g><g
       id="AF_SouthAfrica"><path
         id="AF_SouthAfrica_p"
         style="opacity:1;fill:#a52300;fill-opacity:1;fill-rule:evenodd;stroke:none;stroke-width:0"
         d="m 126.18196,114.10208 -0.99529,0.33176 -1.44797,0.92398 -1.04748,0.40049 0.70848,1.87947 -0.76998,1.2945 -1.07848,-0.0925 0.40049,-1.81797 -0.524,-1.38648 0.37,-1.01699 -1.60248,-2.21796 -1.17047,0.0615 -1.1405,1.32498 0.4625,0.80099 -0.031,0.86248 -0.76998,0.185 -1.26349,-0.678 -2.18747,-0.24649 0.308,-2.15646 -2.74247,-1.32498 -0.33848,0.76998 -0.524,0.1235 -0.30799,-1.44797 -1.54048,-1.26349 -2.80448,-0.30386 1.4826,2.61586 -0.47904,0.41393 -0.0656,0.5886 0.30489,0.76222 0.43615,2.02624 -1.39475,1.93941 -0.0217,1.67742 0.21807,1.78645 1.96061,4.07417 v 1.67742 l 0.84956,1.19838 0.32711,1.15497 0.3483,2.46186 0.69763,0.80615 -0.17467,0.71882 -0.0217,0.78445 1.24178,0.58808 1.32912,-0.30489 1.43816,0.26148 4.05195,-1.43815 0.89348,-1.13275 0.15245,-1.35082 1.54719,-1.02423 -0.0656,-2.22209 0.93689,-1.06763 0.15245,-0.9369 0.58808,-0.50074 -0.0651,-2.63653 3.74705,-4.74958 -0.13074,-2.94091 z" /><text
         xml:space="preserve"
         style="font-style:italic;font-variant:normal;font-weight:normal;font-stretch:normal;font-size:2.11667px;font-family:C059;-inkscape-font-specification:'C059 Italic';writing-mode:lr-tb;direction:ltr;fill:#000000;fill-opacity:1;stroke-width:0.264583"
         x="109.02201"
         y="122.87852"
         id="text23"><tspan
           style="stroke-width:0.264583"
           x="109.02201"
           y="122.87852"
           id="tspan24">South Africa</tspan></text></g><g
       id="AF_CentralAfrica"><path
         id="AF_CentralAfrica_p"
         style="opacity:1;fill:#a52300;fill-opacity:1;fill-rule:evenodd;stroke:none;stroke-width:0"
         d="m 119.30538,112.44688 -0.0341,-1.187 -0.6475,-1.75597 0.92449,-0.6165 -0.0615,-1.50947 2.06448,-0.98598 0.21549,-1.35599 0.77049,-0.493 -0.216,-0.95498 -1.47898,0.154 -1.23249,-1.26297 -1.63297,0.30799 -1.26297,-1.47898 -0.21601,-1.786973 -1.60197,-0.862996 -0.12351,-1.139982 -0.49247,-0.246497 -1.41749,0.338997 -0.185,0.954981 -3.38946,2.00298 -0.092,0.80098 0.76998,0.709 -0.5855,1.07797 -0.092,1.541 -1.26349,-1.1405 -1.29398,0.43149 0.89349,0.9245 -2.48047,0.19533 v 0.34055 l -0.65371,0.6103 0.37052,1.39423 0.82786,0.84956 0.4563,0.8046 2.80448,0.30386 1.54048,1.26349 0.30799,1.44797 0.524,-0.1235 0.33848,-0.76998 2.74247,1.32498 -0.308,2.15646 2.18747,0.24649 1.26349,0.678 0.76998,-0.185 0.031,-0.86248 -0.4625,-0.80099 1.1405,-1.32498 z" /><text
         xml:space="preserve"
         style="font-style:italic;font-variant:normal;font-weight:normal;font-stretch:normal;font-size:2.11667px;font-family:C059;-inkscape-font-specification:'C059 Italic';writing-mode:lr-tb;direction:ltr;fill:#000000;fill-opacity:1;stroke-width:0.264583"
         x="105.44895"
         y="107.19191"
         id="text21"><tspan
           style="stroke-width:0.264583"
           x="105.44895"
           y="107.19191"
           id="tspan22">Central Africa</tspan></text></g><g
       id="AF_EastAfrica"><path
         id="AF_EastAfrica_p"
         style="opacity:1;fill:#a52300;fill-opacity:1;fill-rule:evenodd;stroke:none;stroke-width:0"
         d="m 123.22297,88.289701 -5.33869,0.416512 -0.55449,-0.400492 -2.00246,0.615983 -0.062,1.078487 -0.64699,0.585494 -0.2434,-0.0057 0.4594,2.039152 -0.89348,0.400492 0.49299,1.848983 -0.58549,0.800985 0.4315,1.601969 0.49247,0.246497 0.12351,1.139982 1.60197,0.862996 0.21601,1.786969 1.26297,1.47898 1.63297,-0.30799 1.23249,1.26297 1.47898,-0.154 0.216,0.95498 -0.77049,0.493 -0.21549,1.35599 -2.06448,0.98598 0.0615,1.50947 -0.92449,0.6165 0.6475,1.75597 0.0341,1.187 0.88987,-0.0465 1.60248,2.21796 -0.37,1.01699 0.524,1.38648 -0.40049,1.81797 1.07848,0.0925 0.76998,-1.2945 -0.70848,-1.87947 1.04748,-0.40049 1.44797,-0.92398 0.99529,-0.33176 -0.2098,-0.19999 0.0656,-1.002 -0.67541,-0.60979 -0.0439,-2.11356 0.67541,-0.39223 0.15245,-0.71882 0.82785,-0.0656 1.69964,-2.48357 1.72134,-0.98031 1.61179,-1.96112 1.65623,-3.616309 0.93689,-2.701644 -1.80867,0.109037 -0.15245,-0.327112 -0.39222,-0.06511 -0.67541,0.718819 -1.22008,-0.08733 -0.15245,0.348816 -1.13275,-0.17415 0.0651,-0.850077 -2.2655,-2.374532 -0.47956,-0.06563 -0.0868,-1.39423 -2.04794,-3.965133 -0.67541,-0.08733 z" /><text
         xml:space="preserve"
         style="font-style:italic;font-variant:normal;font-weight:normal;font-stretch:normal;font-size:2.11667px;font-family:C059;-inkscape-font-specification:'C059 Italic';writing-mode:lr-tb;direction:ltr;fill:#000000;fill-opacity:1;stroke-width:0.264583"
         x="116.51673"
         y="97.867073"
         id="text20"><tspan
           id="tspan20"
           style="stroke-width:0.264583"
           x="116.51673"
           y="97.867073">East Africa</tspan></text></g><g
       id="AF_NorthAfrica"><path
         id="AF_NorthAfrica_p"
         style="opacity:1;fill:#a52300;fill-opacity:1;fill-rule:evenodd;stroke:none;stroke-width:0"
         d="m 102.74722,76.733818 -2.57091,0.522965 -0.588074,0.675411 -3.507796,1.328601 -3.790983,-0.10852 -0.718819,0.936893 -0.675411,0.06511 -0.784448,1.438155 -0.457337,0.174149 -0.501261,0.501262 -0.217558,1.263488 -0.871781,0.3483 -1.263489,2.048453 0.04341,1.503268 0.37052,0.391707 v 3.507796 l 0.283187,0.74104 -0.06511,1.9389 1.655713,2.156974 0.04341,1.045931 0.413928,0.806153 1.176672,0.936377 0.653707,0.958598 0.914673,0.109041 0.74104,1.22008 1.699121,0.632 1.873788,-0.32711 2.069641,0.32711 0.936894,-0.78445 3.006543,0.17415 0.0873,0.91519 2.48357,0.39223 0.30541,1.39423 -0.34882,0.28318 v 0.85783 l 2.48047,-0.19533 -0.89349,-0.9245 1.29398,-0.43149 1.26349,1.1405 0.092,-1.541 0.5855,-1.07797 -0.76998,-0.709 0.092,-0.80098 3.38946,-2.002983 0.185,-0.954981 1.41749,-0.338997 -0.4315,-1.601969 0.58549,-0.800985 -0.49299,-1.848983 0.89348,-0.400492 -0.4594,-2.039152 -1.14308,-0.02532 -0.40049,-1.047481 -0.98599,-0.0615 -0.185,-1.109493 -0.76998,-0.03049 -1.13998,-0.6165 -1.1095,0.523999 -0.46198,0.03049 -0.27751,-0.893485 -2.58795,-0.86248 0.26975,-8.203117 -1.52859,-1.529105 z" /><text
         xml:space="preserve"
         style="font-style:italic;font-variant:normal;font-weight:normal;font-stretch:normal;font-size:2.11667px;font-family:C059;-inkscape-font-specification:'C059 Italic';writing-mode:lr-tb;direction:ltr;display:inline;opacity:1;fill:#000000;fill-opacity:1;stroke-width:0.264583"
         x="95.078339"
         y="91.59243"
         id="text19"><tspan
           id="tspan19"
           style="stroke-width:0.264583"
           x="95.078339"
           y="91.59243">North Africa</tspan></text></g><g
       id="AS_Japan"><path
         style="display:inline;opacity:1;fill:#098d00;fill-opacity:1;fill-rule:evenodd;stroke:none;stroke-width:0"
         d="m 183.60532,62.578016 -0.92435,1.355701 0.12325,0.338926 1.0784,0.03081 -0.12325,1.32489 1.8795,0.585417 0.30811,-0.462171 -0.58541,-0.862719 0.40054,-0.308115 0.0308,-0.985965 1.57138,-0.985967 0.98597,-0.21568 -0.40055,-0.708663 0.33892,-0.585417 0.92435,0.06162 0.64704,-1.571384 0.70866,0.06162 0.64704,-0.647041 1.10921,0.09244 0.40055,-1.324894 0.70866,0.06162 0.95516,-1.417326 -1.0784,-0.61623 0.33892,-1.201645 -0.5546,-0.801098 0.5546,-1.263269 -0.12324,-1.571381 -1.0784,-1.201648 -0.86272,-0.462171 -0.61623,0.677852 -0.55461,-0.616228 0.55461,-0.554606 -0.5238,-0.739474 0.73948,-0.462171 2.40329,0.154056 0.15406,-1.232456 1.14002,-0.246493 -0.36974,-0.770284 0.8011,-0.40055 -0.89353,-1.016776 -1.0784,0.369737 -3.29683,-1.201648 -0.77028,1.170837 1.01677,0.89353 -0.18486,1.047588 -0.61623,0.585418 -0.64704,-0.123246 -0.0308,0.862722 0.58542,0.154056 -0.18487,0.862719 -0.43137,0.40055 0.2465,0.338926 0.73947,0.09243 0.18487,0.739473 -0.8011,0.770287 -0.12324,1.016775 0.61623,0.338926 0.0924,0.831908 -0.58542,0.616231 -0.0308,0.893529 -0.95515,1.324893 -0.67786,-0.246491 -0.43135,0.708663 0.0924,1.10921 -0.58542,0.492985 -0.0616,0.616228 -1.29408,0.123245 -1.60219,2.742218 z"
         id="AS_Japan_p" /><text
         xml:space="preserve"
         style="font-style:italic;font-variant:normal;font-weight:normal;font-stretch:normal;font-size:2.11667px;font-family:C059;-inkscape-font-specification:'C059 Italic';writing-mode:lr-tb;direction:ltr;fill:#000000;fill-opacity:1;stroke-width:0.264583"
         x="40.066658"
         y="194.00285"
         id="text36"
         transform="rotate(-60.968025)"><tspan
           id="tspan36"
           style="stroke-width:0.264583"
           x="40.066658"
           y="194.00285">Japan</tspan></text></g><g
       id="AS_SoutheastAsia"><path
         id="AS_SoutheastAsia_p"
         style="opacity:1;fill:#098d00;fill-opacity:1;fill-rule:evenodd;stroke:none;stroke-width:0"
         d="m 172.30576,79.83182 0.36174,-0.769462 -0.5855,-0.709001 -1.47898,-0.246497 0.27699,-1.078487 -1.01648,-0.184485 -0.83199,0.708484 -0.89348,-0.0925 -0.709,1.232483 -1.87948,-1.047481 -0.0305,-1.417484 -2.95796,-0.492994 -1.44798,1.817977 0.18449,0.585494 -0.83148,1.417485 -0.92449,0.831474 0.2248,1.308447 0.0625,-0.05943 0.40308,0.05426 0.54467,0.54467 0.0109,1.100191 1.29656,1.492415 0.0656,1.198377 c 0,0 1.08266,0.649512 1.15187,0.644922 l 5.2e-4,-5.17e-4 c 2.1e-4,-6.1e-5 8.5e-4,-4.34e-4 0.001,-5.17e-4 h 5.2e-4 l 5.1e-4,-5.17e-4 v -5.16e-4 c 0.0109,-0.04357 0.38138,-0.403077 0.38138,-0.403077 l 1.002,0.07648 1.36168,2.080493 -0.0434,0.806152 -0.33797,0.261483 0.0656,0.544669 1.02423,2.886646 0.87126,0.435632 0.43564,1.350822 0.40462,0.275952 1.44023,-0.077 0.0925,-0.538985 -1.07074,-2.13372 -0.0232,-1.39423 -0.98547,-0.824239 0.19998,-1.301729 0.34675,0.05374 1.91048,1.786971 0.52348,2.13372 0.61444,0.537952 0.4687,-0.0217 0.55552,-0.838709 -0.0543,-0.588077 0.50075,-0.05478 1.41955,-1.699637 -0.83096,-2.940906 -0.19637,-2.418457 -1.26349,-0.871265 -0.13074,-1.241784 -1.17667,-0.327112 -0.3483,-1.76475 1.11104,-0.958598 z" /><text
         xml:space="preserve"
         style="font-style:italic;font-variant:normal;font-weight:normal;font-stretch:normal;font-size:2.11667px;font-family:C059;-inkscape-font-specification:'C059 Italic';text-align:center;writing-mode:lr-tb;direction:ltr;text-anchor:middle;fill:#000000;fill-opacity:1;stroke-width:0.264583"
         x="165.43425"
         y="81.396133"
         id="text37"><tspan
           id="tspan37"
           style="stroke-width:0.264583"
           x="165.43425"
           y="81.396133">Southeast</tspan><tspan
           style="stroke-width:0.264583"
           x="165.43425"
           y="84.041969"
           id="tspan38">Asia</tspan></text></g><g
       id="AS_India"><path
         id="AS_India_p"
         style="opacity:1;fill:#098d00;fill-opacity:1;fill-rule:evenodd;stroke:none;stroke-width:0"
         d="m 162.49654,75.815527 -1.09864,-0.955497 -2.61431,-0.130741 -0.69712,-1.39423 -4.57543,-1.002523 -0.74104,-1.002006 -0.69711,0.304891 -0.91467,-1.39423 1.17615,-0.609782 -0.17415,-3.268535 h -1.69964 l -0.3483,-0.522448 -1.35082,0.04341 -1.08934,1.39423 -0.39222,-0.697115 -0.87127,0.174149 -0.47955,-0.697115 -1.35082,0.218075 -0.56638,0.784448 -1.30741,0.566374 0.6537,0.435632 -2.83238,1.524972 0.30541,0.827856 -0.56689,2.178679 1.00252,0.653706 0.26148,0.479558 -0.6103,1.306897 1.13327,0.566373 -0.30541,1.133265 0.69712,0.522965 -0.3049,0.783932 0.49816,1.57303 1.12965,-0.0124 0.062,1.124479 0.56534,0.180351 0.65371,-0.403076 0.0217,-0.403077 0.44649,0.04341 0.0217,0.446484 -0.94774,0.435632 0.49041,0.642855 0.78444,-0.337447 -0.0439,0.370003 -0.54467,0.207223 0.0439,0.577225 -1.11156,0.152446 c 0,0 1.7634,1.286646 1.65261,1.195276 -0.0778,-0.106085 1.54151,-0.595829 1.54151,-0.595829 l 0.86299,0.223242 -0.23151,4.413684 1.64848,3.204455 -0.0925,0.949296 1.78645,3.878317 1.52497,1.045931 0.37052,-0.181385 0.20826,-1.124479 0.65474,-0.65474 0.0305,-2.356962 0.447,-0.701249 0.80874,0.0078 1.02061,-2.113566 -0.77308,-0.609782 0.0434,-1.655713 1.12189,-2.549198 0.64286,0.0217 0.7953,-0.980302 -0.44649,-1.002523 0.1416,-0.642338 1.02371,0.0217 0.77618,-0.735872 -0.2248,-1.308447 0.92449,-0.831474 0.83148,-1.417485 -0.18449,-0.585494 z" /><text
         xml:space="preserve"
         style="font-style:italic;font-variant:normal;font-weight:normal;font-stretch:normal;font-size:2.11667px;font-family:C059;-inkscape-font-specification:'C059 Italic';writing-mode:lr-tb;direction:ltr;fill:#000000;fill-opacity:1;stroke-width:0.264583"
         x="148.76144"
         y="76.951584"
         id="text39"><tspan
           id="tspan39"
           style="stroke-width:0.264583"
           x="148.76144"
           y="76.951584">India</tspan></text></g><g
       id="AS_China"><path
         id="AS_China_p"
         style="opacity:1;fill:#098d00;fill-opacity:1;fill-rule:evenodd;stroke:none;stroke-width:0"
         d="m 176.76285,62.500061 -2.77192,-0.363802 -1.69964,0.479557 -0.3483,-0.610298 -0.87178,-0.217558 -3.09387,0.392224 -0.56637,-0.610299 -2.48357,-0.130741 -1.52497,-1.437638 -0.78445,0.04341 -1.78645,-2.614311 -0.69712,-0.04392 -0.6103,-2.78846 -2.26601,-0.479558 0.34882,-1.22008 -1.17668,-1.742529 -0.60978,-0.436149 -0.6103,1.176672 -0.87126,-0.871265 -1.22008,0.130742 -0.39222,1.917195 -1.26349,0.566374 0.26148,0.871265 -0.74104,0.435632 -0.39223,2.658236 0.74104,1.089339 -1.74304,0.871264 -0.74052,2.048454 h -1.04594 l 0.0434,1.655713 1.04593,0.653707 0.14832,1.951819 1.07176,-0.03462 0.3483,0.522448 h 1.69964 l 0.17415,3.268535 -1.17615,0.609782 0.91467,1.39423 0.69711,-0.304891 0.74104,1.002006 4.57543,1.002523 0.69712,1.39423 2.61431,0.130741 1.09864,0.955497 0.0646,-0.08113 2.95796,0.492994 0.0305,1.417484 1.87948,1.047481 0.709,-1.232483 0.89348,0.0925 0.83199,-0.708484 1.01648,0.184485 -0.27699,1.078487 1.47898,0.246497 0.5855,0.709001 -0.36174,0.769462 0.61754,0.279052 0.76222,-0.566373 0.10904,-0.871782 1.15497,0.06563 0.6537,-1.133264 -0.32711,-0.609782 1.28571,0.04341 c 0,0 1.09672,-1.419941 1.11983,-1.481563 0.0231,-0.06162 0.13126,-0.901237 0.13126,-0.901237 l 0.86248,-0.77773 -0.077,-2.827218 0.447,-0.877982 -0.108,-1.293978 0.339,-0.808736 c 0,0 -0.46219,-1.263505 -0.493,-1.348238 -0.0308,-0.08473 0.0615,-0.885734 0.0615,-0.885734 l -0.54674,-1.663982 -1.62781,-1.229899 z" /><text
         xml:space="preserve"
         style="font-style:italic;font-variant:normal;font-weight:normal;font-stretch:normal;font-size:2.11667px;font-family:C059;-inkscape-font-specification:'C059 Italic';writing-mode:lr-tb;direction:ltr;fill:#000000;fill-opacity:1;stroke-width:0.264583"
         x="158.3477"
         y="65.186623"
         id="text40"><tspan
           id="tspan40"
           style="stroke-width:0.264583"
           x="158.3477"
           y="65.186623">China</tspan></text></g><g
       id="AS_Mongolia"><path
         id="AS_Mongolia_p"
         style="opacity:1;fill:#098d00;fill-opacity:1;fill-rule:evenodd;stroke:none;stroke-width:0"
         d="m 181.54396,53.331112 -1.3224,-1.826762 -1.26349,-0.17415 -0.56637,-1.307414 0.74052,-0.392224 -0.0868,-1.176155 -1.26349,-1.220081 -1.52549,-0.392224 0.13075,-1.39423 -1.13275,-0.348816 -0.43563,-1.307414 -3.13728,0.958598 c 0,0 0.39184,1.394602 0.47904,1.568897 0.0872,0.174297 -0.9586,0.827856 -0.9586,0.827856 l 0.21808,1.786454 -0.78445,0.697115 -0.39222,-1.263488 h -1.26349 l -0.17415,1.045931 -0.87178,0.174149 -0.56638,-0.697115 -2.22208,0.609782 -1.22009,-1.002006 -2.09186,0.871265 -2.09134,-0.740524 -0.78445,2.919202 0.87126,1.045931 -0.69401,1.922363 0.38912,0.08217 0.6103,2.78846 0.69712,0.04392 1.78645,2.614311 0.78445,-0.04341 1.52497,1.437638 2.48357,0.130741 0.56637,0.610299 3.09387,-0.392224 0.87178,0.217558 0.3483,0.610298 1.69964,-0.479557 2.77192,0.363802 0.10387,-0.494543 1.41594,-0.653191 -0.74053,-0.980818 -1.72134,0.218074 -0.54467,-1.198376 1.48157,-1.503268 0.45733,0.91519 1.5472,-0.718819 0.47904,0.239262 -0.21756,1.329118 0.91467,0.675411 0.78445,-0.501262 0.50126,0.958598 -0.52297,1.198376 1.15497,0.91519 0.45734,-0.08733 -0.13074,-1.02371 1.19837,-1.263489 -0.39222,-1.329118 -2.59261,-2.069641 0.86042,-3.758427 z" /><text
         xml:space="preserve"
         style="font-style:italic;font-variant:normal;font-weight:normal;font-stretch:normal;font-size:2.11667px;font-family:C059;-inkscape-font-specification:'C059 Italic';writing-mode:lr-tb;direction:ltr;fill:#000000;fill-opacity:1;stroke-width:0.264583"
         x="165.23239"
         y="55.948948"
         id="text41"><tspan
           id="tspan41"
           style="stroke-width:0.264583"
           x="165.23239"
           y="55.948948">Mongolia</tspan></text></g><g
       id="AS_Irkutsk"><path
         id="AS_Irkutsk_p"
         style="opacity:1;fill:#098d00;fill-opacity:1;fill-rule:evenodd;stroke:none;stroke-width:0"
         d="m 178.31315,47.747473 0.47077,-1.733227 1.22008,-0.697115 -0.9586,-3.747575 -2.70164,-0.348816 -1.39423,-0.391708 -0.39223,-1.786971 -1.35082,-1.437638 -0.6103,-6.100403 -2.00401,-0.174149 -0.91519,0.740523 -0.43563,-0.479041 h -1.26401 l -0.30489,1.699121 -3.48609,1.481564 0.0439,2.919201 -0.69712,0.91519 c 0,0 0.69731,0.82806 0.65371,1.045931 -0.0436,0.217868 -0.56689,2.13527 -0.56689,2.13527 l -1.43764,-2.570902 -1.00252,0.697115 -1.08934,1.917195 -1.56838,0.653707 -0.34882,1.176156 0.74104,1.089339 c 0,0 -0.87165,0.8718 -1.17667,1.002523 -0.30501,0.13072 0.26148,2.004529 0.26148,2.004529 h 1.04593 c 0,0 0.32292,0.427564 0.68523,0.914673 l 0.0119,-0.04341 2.09134,0.740524 2.09186,-0.871265 1.22009,1.002006 2.22208,-0.609782 0.56638,0.697115 0.87178,-0.174149 0.17415,-1.045931 h 1.26349 l 0.39222,1.263488 0.78445,-0.697115 -0.21808,-1.786454 c 0,0 1.04575,-0.653559 0.9586,-0.827856 -0.0872,-0.174295 -0.47904,-1.568897 -0.47904,-1.568897 l 3.13728,-0.958598 0.43563,1.307414 1.13275,0.348816 -0.13075,1.39423 1.52549,0.392224 z" /><text
         xml:space="preserve"
         style="font-style:italic;font-variant:normal;font-weight:normal;font-stretch:normal;font-size:2.11667px;font-family:C059;-inkscape-font-specification:'C059 Italic';writing-mode:lr-tb;direction:ltr;fill:#000000;fill-opacity:1;stroke-width:0.264583"
         x="166.10387"
         y="41.046654"
         id="text42"><tspan
           id="tspan42"
           style="stroke-width:0.264583"
           x="166.10387"
           y="41.046654">Irkutsk</tspan></text></g><g
       id="AS_Kamchatka"><path
         id="AS_Kamchatka_p"
         style="opacity:1;fill:#098d00;fill-opacity:1;fill-rule:evenodd;stroke:none;stroke-width:0"
         d="m 181.96564,18.274854 c 0.0212,1.007682 0.0501,1.896388 0.0863,1.986958 0.0872,0.21787 -1.69964,0.91519 -1.69964,0.91519 l -0.9586,2.919202 1.61231,1.350822 -0.65371,2.309419 -2.48357,0.348816 -0.47904,-1.655713 c 0,0 -2.3098,0.653374 -2.48409,0.740524 -0.1743,0.08715 -1.56838,1.481563 -1.56838,1.481563 l 0.52297,1.22008 -1.25264,1.725477 0.59893,5.987231 1.35082,1.437638 0.39223,1.786971 1.39423,0.391708 2.70164,0.348816 0.9586,3.747575 -1.22008,0.697115 -0.47077,1.733227 0.73225,0.706934 0.0868,1.176155 -0.74052,0.392224 0.56637,1.307414 1.26349,0.17415 1.3224,1.826762 1.18339,-0.148828 0.0765,-1.307414 1.10019,-2.396753 -0.0522,-2.090312 -0.524,-1.725476 c 0,0 0.73987,-1.417106 0.555,-1.848466 -0.18487,-0.431359 -1.07848,-2.865458 -1.07848,-2.865458 l 0.15399,-1.663981 -1.53841,-1.342554 c 0,0 -1.60124,-0.04345 -1.65571,-0.03256 h -5.2e-4 -5.1e-4 c -0.0614,7.6e-4 -0.58705,-0.632003 -0.58705,-0.632003 0,0 -0.71917,0.207078 -0.76274,0.109037 -0.0436,-0.09804 -0.22841,-0.577225 -0.22841,-0.577225 l 0.78393,-0.228927 -0.0868,-0.609782 1.39578,-2.632397 2.06396,-0.0615 1.01699,-0.646989 1.26349,0.0615 0.18449,0.924491 2.46496,-0.709 -0.80098,-0.615984 0.67799,-2.033467 0.83199,-0.154513 0.67748,1.848983 0.678,-0.185002 0.64699,-1.293977 0.185,-1.447974 0.64699,-0.03101 0.30799,1.57148 -1.47898,1.940967 -0.30799,2.495972 -0.92449,1.170471 0.0925,2.095479 0.37,0.769979 -0.15451,0.709001 1.97197,1.940967 1.54099,-1.848466 -0.83199,-1.016992 0.339,-0.646989 0.89348,-0.677995 -0.4315,-2.187464 -1.23248,-1.848982 0.37001,-1.201477 0.52348,0.123506 0.98598,-1.078487 1.17099,0.585494 0.36949,-1.047998 2.03347,-2.526461 1.41748,-0.12299 -0.49299,-1.940966 -0.493,-0.06201 -0.55448,-0.708484 1.17098,-0.677995 3.20394,1.448491 0.94,-2.880961 -1.50999,-1.448491 -0.92397,0.646989 -0.73949,-0.04599 0.19999,-1.170988 -1.07849,-0.03049 -3.72794,-2.18798 -2.54196,-0.893486 -1.23249,0.73949 0.416,0.908988 -2.35696,-0.261999 -0.8475,-0.615983 -1.03198,0.431498 -1.30948,-1.09399 -2.23397,-0.384989 z" /><text
         xml:space="preserve"
         style="font-style:italic;font-variant:normal;font-weight:normal;font-stretch:normal;font-size:2.11667px;font-family:C059;-inkscape-font-specification:'C059 Italic';writing-mode:lr-tb;direction:ltr;fill:#000000;fill-opacity:1;stroke-width:0.264583"
         x="183.272"
         y="26.057219"
         id="text48"><tspan
           id="tspan48"
           style="stroke-width:0.264583"
           x="183.272"
           y="26.057219">Kamchatka</tspan></text></g><g
       id="AS_Yakutsk"><path
         id="AS_Yakutsk_p"
         style="opacity:1;fill:#098d00;fill-opacity:1;fill-rule:evenodd;stroke:none;stroke-width:0"
         d="m 166.41,17.226855 0.43408,1.876372 0.67748,0.769979 -1.10898,1.047998 -0.339,3.296439 -1.23248,0.185002 -0.46199,0.677995 -0.6165,-0.554488 -1.38647,1.786971 0.73948,1.016475 0.863,0.0925 0.154,0.646989 -0.83199,0.770495 0.185,0.708484 0.70848,0.6165 0.4315,2.988448 0.52245,1.210262 2.52439,-1.072803 0.30489,-1.699121 h 1.26401 l 0.43563,0.479041 0.91519,-0.740523 2.00401,0.174149 0.0114,0.113172 1.25264,-1.725477 -0.52297,-1.22008 c 0,0 1.39408,-1.394417 1.56838,-1.481563 0.17429,-0.08715 2.48409,-0.740524 2.48409,-0.740524 l 0.47904,1.655713 2.48357,-0.348816 0.65371,-2.309419 -1.61231,-1.350822 0.9586,-2.919202 c 0,0 1.78679,-0.69732 1.69964,-0.91519 -0.0362,-0.09057 -0.0651,-0.979276 -0.0863,-1.986958 l -0.53279,0.227376 -1.29397,-0.662492 0.30799,-0.846977 -1.30948,-0.647505 -0.308,1.032495 -0.40049,-0.108004 -0.83199,-1.031978 -1.09347,0.446484 -1.23248,-0.199988 -0.832,0.954981 0.70849,0.646989 -1.17047,-0.415996 -1.09399,0.354501 -0.56999,-0.338998 -1.017,0.554488 c 0,0 -0.0884,1.083729 -0.0925,1.18029 3.1e-4,0.0022 5.7e-4,0.004 5.2e-4,0.0052 v 5.16e-4 l -5.2e-4,5.17e-4 c -4e-5,-0.001 -1.3e-4,-0.0032 0,-0.0062 -0.0141,-0.101006 -0.40049,-1.280025 -0.40049,-1.280025 0,0 -1.24772,-0.139107 -1.28623,-0.154513 h -5.1e-4 l -5.2e-4,-5.17e-4 -5.2e-4,-5.16e-4 v -5.17e-4 l -5.1e-4,-5.17e-4 c -0.0197,-0.0481 0.32556,-0.767912 0.32556,-0.767912 l -0.17725,-1.263488 -2.58021,-0.03824 -0.25424,1.070736 z" /><text
         xml:space="preserve"
         style="font-style:italic;font-variant:normal;font-weight:normal;font-stretch:normal;font-size:2.11667px;font-family:C059;-inkscape-font-specification:'C059 Italic';writing-mode:lr-tb;direction:ltr;fill:#000000;fill-opacity:1;stroke-width:0.264583"
         x="167.32394"
         y="25.621479"
         id="text43"><tspan
           id="tspan43"
           style="stroke-width:0.264583"
           x="167.32394"
           y="25.621479">Yakutsk</tspan></text></g><g
       id="AS_Siberia"><path
         id="AS_Siberia_p"
         style="display:inline;opacity:1;fill:#098d00;fill-opacity:1;fill-rule:evenodd;stroke:none;stroke-width:0"
         d="m 157.80329,12.897921 -1.5689,0.109037 0.15245,0.849561 -1.35083,-0.675411 -0.67541,0.653706 -0.93689,-0.174149 -0.19585,0.675411 -1.08934,-0.283187 -0.0873,0.871265 -0.9803,-0.566374 -1.11104,0.435632 0.17415,1.241785 -0.82786,-0.479041 -0.84956,0.522449 0.41393,0.91519 -1.87379,0.130741 -0.41393,1.220081 1.02371,1.198376 -0.43563,0.54467 -0.9586,-1.132748 -0.91519,-0.283186 -0.50074,1.002006 1.00201,0.37052 0.30489,0.457336 -0.39171,0.893485 0.17415,0.479041 0.45734,0.152445 -0.26149,0.871782 -2.37711,-2.362647 -0.92398,2.202967 0.41548,0.401009 -0.13849,0.47749 1.95647,1.262972 -0.37569,0.567407 0.91519,1.974557 2.46497,2.156974 -0.6165,1.540475 0.55448,0.862479 2.83497,4.806942 -0.67799,1.293978 1.60197,1.663981 -0.80099,0.73949 0.493,1.170471 -1.97198,2.156974 2.34198,0.0615 -0.92449,1.663981 2.58795,2.896464 1.048,0.246497 -0.31057,2.360062 0.16071,-0.01705 0.87126,0.871265 0.6103,-1.176672 0.60978,0.436149 1.17668,1.742529 -0.34882,1.22008 1.87689,0.397392 0.69401,-1.922363 -0.87126,-1.045931 0.77256,-2.875793 C 159.36803,48.184864 159.04511,47.7573 159.04511,47.7573 h -1.04593 c 0,0 -0.56649,-1.873809 -0.26148,-2.004529 0.30502,-0.130723 1.17667,-1.002523 1.17667,-1.002523 l -0.74104,-1.089339 0.34882,-1.176156 1.56838,-0.653707 1.08934,-1.917195 1.00252,-0.697115 1.43764,2.570902 c 0,0 0.52331,-1.917402 0.56689,-2.13527 0.0436,-0.217871 -0.65371,-1.045931 -0.65371,-1.045931 l 0.69712,-0.91519 -0.0439,-2.919201 0.9617,-0.408761 -0.52245,-1.210262 -0.4315,-2.988448 -0.70848,-0.6165 -0.185,-0.708484 0.83199,-0.770495 -0.154,-0.646989 -0.863,-0.0925 -0.73948,-1.016475 1.38647,-1.786971 0.6165,0.554488 0.46199,-0.677995 1.23248,-0.185002 0.339,-3.296439 1.10898,-1.047998 -0.67748,-0.769979 -0.43408,-1.876372 -0.47491,0.273886 -0.79375,-0.584978 -0.87023,-0.123506 -0.49299,-0.604615 -1.29088,0.691948 -0.72967,-0.659391 -0.96945,0.256315 0.1633,0.566373 -0.31058,0.528134 -1.13843,0.185518 -2.09135,1.699121 1.72083,-2.113049 0.82786,-0.501262 -0.0868,-0.740523 1.08934,-0.806152 -0.91519,-1.329118 h -1.72134 z" /><text
         xml:space="preserve"
         style="font-style:italic;font-variant:normal;font-weight:normal;font-stretch:normal;font-size:2.11667px;font-family:C059;-inkscape-font-specification:'C059 Italic';writing-mode:lr-tb;direction:ltr;fill:#000000;fill-opacity:1;stroke-width:0.264583"
         x="152.68311"
         y="30.676056"
         id="text44"><tspan
           id="tspan44"
           style="stroke-width:0.264583"
           x="152.68311"
           y="30.676056">Sibera</tspan></text></g><g
       id="AS_Ural"><path
         id="AS_Ural_p"
         style="display:inline;opacity:1;fill:#098d00;fill-opacity:1;fill-rule:evenodd;stroke:none;stroke-width:0"
         d="m 139.58941,18.518766 -0.19637,1.852084 -0.47904,0.413928 0.10852,0.871264 0.43615,0.283704 -0.80615,0.892969 0.9586,1.329118 -0.51625,0.40721 1.64899,1.619023 -1.17667,3.965132 -1.002,0.348816 -0.0434,3.006535 0.3483,3.006535 -0.65371,1.002006 v 0.697115 l 0.69711,0.435632 -0.56637,2.266012 0.82786,1.045931 1.13326,0.740523 -0.56637,1.786454 0.43563,2.004529 5.43739,6.009452 1.10898,-0.03101 0.7705,0.83199 2.03346,-0.0615 1.3715,2.275314 0.0842,-0.571025 0.74104,-0.435632 -0.26148,-0.871265 1.26349,-0.566374 0.39222,-1.917195 1.05937,-0.113689 0.31057,-2.360062 -1.048,-0.246497 -2.58795,-2.896464 0.92449,-1.663981 -2.34198,-0.0615 1.97198,-2.156974 -0.493,-1.170471 0.80099,-0.73949 -1.60197,-1.663981 0.67799,-1.293978 -2.83497,-4.806942 -0.55448,-0.862479 0.6165,-1.540475 -2.46497,-2.156974 -0.91519,-1.974557 -0.47129,0.711585 -0.108,1.617472 c 0,0 -2.85762,1.853696 -2.87941,1.701188 -0.0218,-0.152511 2.35282,-2.67994 2.35282,-2.67994 l 0.0656,-1.960603 -1.74304,-1.873788 -0.23978,-1.002006 0.82837,-1.438155 z" /><text
         xml:space="preserve"
         style="font-style:italic;font-variant:normal;font-weight:normal;font-stretch:normal;font-size:2.11667px;font-family:C059;-inkscape-font-specification:'C059 Italic';writing-mode:lr-tb;direction:ltr;fill:#000000;fill-opacity:1;stroke-width:0.264583"
         x="142.74825"
         y="42.876762"
         id="text45"><tspan
           id="tspan45"
           style="stroke-width:0.264583"
           x="142.74825"
           y="42.876762">Ural</tspan></text></g><g
       id="AS_MiddleEast"><path
         id="AS_MiddleEast_p"
         style="opacity:1;fill:#098d00;fill-opacity:1;fill-rule:evenodd;stroke:none;stroke-width:0"
         d="m 140.89889,69.386462 -0.27543,-0.307474 -1.35599,-0.307992 -0.43098,-1.201477 -0.863,0.03101 -0.73949,-0.862997 -0.40049,0.524 -1.13998,0.06149 -0.154,0.954981 -2.15697,0.03101 -1.20148,-0.277503 -0.339,-0.615983 -0.95498,-0.277502 -0.37,1.078487 -0.83199,-0.307992 -0.89349,0.73949 -0.67748,-0.400492 -0.98598,0.184485 -0.89349,-0.615983 -1.01699,0.0925 0.0925,0.615984 -0.83199,0.431498 -0.2775,-0.523999 -1.10898,-0.09198 -0.0925,-0.831991 -1.23248,0.153996 -0.4315,-0.646989 -1.23248,0.0615 -0.46199,0.646989 h -1.07849 l -0.46199,0.646989 -1.60248,0.0925 0.21601,-0.86248 -1.29398,-0.770496 -1.60249,1.324984 0.46251,1.817977 -1.02423,1.126546 0.22272,0.01344 0.0972,0.816488 1.04593,1.16582 0.0108,0.59893 -0.23978,0.327112 0.10904,0.653706 1.53582,0.04341 0.68626,0.958598 1.47072,-0.926042 1.78542,0.921907 0.80098,-0.0925 0.678,-0.677995 1.07848,0.492993 -0.43149,1.478979 0.30799,2.21847 0.185,0.800984 -1.17099,1.078488 -1.35547,0.03101 1.16117,2.713013 1.18752,-0.07596 3.37706,3.006535 -0.26149,0.980301 3.33365,3.377055 1.22008,4.204912 c 0,0 3.22429,-0.566374 3.31143,-0.566374 0.0871,0 1.30741,0.130741 1.30741,0.130741 l 1.9606,-1.176672 0.14832,-1.255221 1.70997,-2.495455 0.83199,-0.261999 -0.046,-0.985986 0.89348,-0.600997 -0.23099,-0.846977 0.75499,-0.539502 0.27699,-1.524971 -0.72399,-1.185975 -1.04748,-0.246496 -0.524,-1.263489 -0.60048,-0.338997 -1.32498,0.83199 -1.44849,-0.384989 0.077,-1.201994 -1.33997,-1.139982 -0.185,-0.893486 -0.98598,-0.939477 0.52399,-0.8785 1.01648,-0.01499 0.47749,1.047482 1.1405,1.540474 0.0615,0.970483 2.00247,0.370004 0.69349,-0.462504 1.40199,0.261999 2.11046,-1.540474 0.30282,-0.0031 -0.49816,-1.57303 0.3049,-0.783932 -0.69712,-0.522965 0.30541,-1.133265 -1.13327,-0.566373 0.6103,-1.306897 -0.26148,-0.479558 -1.00252,-0.653706 0.56689,-2.178679 -0.30541,-0.827856 z" /><text
         xml:space="preserve"
         style="font-style:italic;font-variant:normal;font-weight:normal;font-stretch:normal;font-size:2.11667px;font-family:C059;-inkscape-font-specification:'C059 Italic';writing-mode:lr-tb;direction:ltr;fill:#000000;fill-opacity:1;stroke-width:0.264583"
         x="123.92429"
         y="73.465668"
         id="text46"><tspan
           id="tspan46"
           style="stroke-width:0.264583"
           x="123.92429"
           y="73.465668">Middle East</tspan></text></g><g
       id="AS_Afghanistan"><path
         id="AS_Afghanistan_p"
         style="opacity:1;fill:#098d00;fill-opacity:1;fill-rule:evenodd;stroke:none;stroke-width:0"
         d="M 140.09946,46.133618 138.0045,48.6823 c 0,0 -1.91042,0.708484 -2.06448,0.708484 -0.15405,0 -0.2775,-0.400493 -0.2775,-0.400493 l -1.01648,-0.277502 -0.49299,0.985986 -1.01699,-0.21549 -1.44797,0.492993 -1.50999,0.12299 c 0,0 0.3082,1.571742 0.339,1.694987 0.0308,0.123246 -0.86248,0.739489 -0.86248,0.739489 l 1.04748,1.663465 -0.339,0.800984 0.493,0.6165 -0.031,1.509469 1.54099,-1.293978 0.98599,0.400492 0.31109,1.875338 -1.32912,0.435632 c 0,0 0.50126,2.047792 0.50126,2.222087 0,0.174297 1.13275,0.304891 1.13275,0.304891 0,0 -0.15245,2.157157 -0.15245,2.244307 0,0.08715 1.08934,0.435633 1.08934,0.435633 l 0.0217,0.719336 -0.89297,0.174149 0.10852,0.697115 1.11156,0.806153 c 0,0 0.26088,0.541908 0.56224,1.170988 l 1.01751,-0.05478 0.40049,-0.524 0.73949,0.862997 0.863,-0.03101 0.43098,1.201477 1.35599,0.307992 0.27543,0.307474 2.45928,-1.32395 -0.6537,-0.435632 1.30741,-0.566374 0.56638,-0.784448 1.35082,-0.218075 0.47955,0.697115 0.87127,-0.174149 0.39222,0.697115 1.08934,-1.39423 0.27906,-0.0088 -0.14832,-1.951819 -1.04593,-0.653707 -0.0434,-1.655713 h 1.04594 l 0.74052,-2.048454 1.74304,-0.871264 -0.74104,-1.089339 0.308,-2.087211 -1.3715,-2.275314 -2.03346,0.0615 -0.7705,-0.83199 -1.10898,0.03101 -5.43739,-6.009452 z" /><text
         xml:space="preserve"
         style="font-style:italic;font-variant:normal;font-weight:normal;font-stretch:normal;font-size:2.11667px;font-family:C059;-inkscape-font-specification:'C059 Italic';writing-mode:lr-tb;direction:ltr;fill:#000000;fill-opacity:1;stroke-width:0.264583"
         x="135.42783"
         y="57.169014"
         id="text47"><tspan
           id="tspan47"
           style="stroke-width:0.264583"
           x="135.42783"
           y="57.169014">Afghanistan</tspan></text></g><g
       id="EU_GreatBritain"><path
         style="display:inline;opacity:1;fill:#22499c;fill-opacity:1;fill-rule:evenodd;stroke:none;stroke-width:0"
         d="m 86.888234,40.979203 1.802469,0.0154 0.492982,0.570013 -0.369737,0.57001 0.231088,0.523796 1.232455,-0.107841 0.369739,0.631634 -0.40055,0.323522 0.123246,0.831908 0.446765,0.123246 0.123248,0.523793 -0.801097,0.508389 -0.07703,0.600823 1.525167,1.540571 0.477578,2.249236 0.631634,0.184867 0.508389,0.662446 0.13865,1.817875 -0.277302,0.631634 0.508389,-0.508389 0.785691,0.09244 0.677852,0.677852 0.0154,0.75488 -0.770284,0.862719 0.508389,1.047589 -0.570013,0.677852 -1.386514,-0.04622 -0.878126,0.585417 -0.585417,-0.04622 -0.477576,-0.369737 -1.294079,-0.0154 -0.138653,0.570014 -0.724069,0.385143 -0.631634,-0.246494 -0.693256,0.431361 -1.29408,0.03081 -0.09244,-0.292709 0.385143,-0.277302 0.09243,-0.431361 0.939749,-0.693256 1.278673,-0.246491 -0.09243,-0.554606 -0.724069,-0.04622 -1.016778,-0.739474 -0.0154,-0.477578 0.801095,-0.415954 -0.400547,-0.431361 -0.616228,-0.06162 -0.107842,0.492982 -1.50976,0.816504 -1.833279,1.586788 H 82.51301 l -0.09243,-0.539199 -1.016778,-0.09243 0.07703,-0.908939 0.677852,-0.123246 0.09243,-0.801097 0.554606,-0.477576 -0.09243,-0.539199 -0.862722,-0.554607 0.231087,-0.508389 -0.246491,-0.75488 0.75488,-0.277302 0.431358,0.215681 0.154059,-0.554607 0.231085,-0.107841 -0.06162,-1.217052 0.89353,0.04622 0.138652,-0.631635 h 0.292708 l 0.107839,-0.462171 h 0.40055 l 0.169463,0.462171 0.785691,-0.09243 0.277305,0.816502 0.693256,0.600823 0.0154,1.448136 1.448136,-0.184867 0.0154,-1.340297 -1.263269,-0.693258 -0.292708,-0.708663 0.400547,-1.247862 -0.955154,-0.308115 -0.0154,-1.001372 -0.89353,-0.338926 -0.04622,-0.631634 0.462172,-0.292709 -0.09244,-0.647038 -0.554606,-0.200277 -0.03081,-0.847312 0.338926,-0.477578 0.431361,-0.07703 -0.04622,-0.600824 z"
         id="EU_GreatBritain_p" /><text
         xml:space="preserve"
         style="font-style:italic;font-variant:normal;font-weight:normal;font-stretch:normal;font-size:2.11667px;font-family:C059;-inkscape-font-specification:'C059 Italic';writing-mode:lr-tb;direction:ltr;fill:#000000;fill-opacity:1;stroke-width:0.264583"
         x="74.91391"
         y="-61.922966"
         id="text49"
         transform="rotate(66.325678)"><tspan
           id="tspan49"
           style="stroke-width:0.264583"
           x="74.91391"
           y="-61.922966">Great Britain</tspan></text></g><g
       id="EU_Iceland"><path
         style="display:inline;opacity:1;fill:#22499c;fill-opacity:1;fill-rule:evenodd;stroke:none;stroke-width:0"
         d="m 87.473651,31.889832 1.617602,-0.07703 0.107839,0.323522 0.338926,-0.04622 0.154056,1.140023 0.308115,-0.554606 0.5392,0.09244 0.554606,0.323519 0.570011,-0.431361 0.631634,-0.369737 2.110584,0.04622 0.246491,-0.369737 0.09243,-0.862722 0.57001,-0.03081 0.385144,0.415954 0.04622,0.693258 0.970561,-0.138652 0.0154,0.862719 -0.338923,0.40055 0.801095,0.107839 1.001374,1.201648 -0.04622,0.878125 -1.109212,0.5392 -0.308116,1.263269 -0.816501,0.539199 -1.247862,-0.369736 -0.631635,0.970558 -0.97056,-0.03081 -0.647042,0.847315 -1.54057,0.0154 -0.847315,-0.662448 0.06162,-0.462172 -0.323522,0.40055 H 88.22852 l -0.03081,-0.323519 0.801098,-0.616231 0.0154,-0.708662 -0.739474,-0.955154 -1.10921,0.0154 -0.21568,-0.492985 1.078399,-0.323519 0.0154,-0.585417 -0.462172,-0.246492 z"
         id="EU_Iceland_p" /><text
         xml:space="preserve"
         style="font-style:italic;font-variant:normal;font-weight:normal;font-stretch:normal;font-size:2.11667px;font-family:C059;-inkscape-font-specification:'C059 Italic';writing-mode:lr-tb;direction:ltr;fill:#000000;fill-opacity:1;stroke-width:0.264583"
         x="89.239441"
         y="35.90493"
         id="text50"><tspan
           id="tspan50"
           style="stroke-width:0.264583"
           x="89.239441"
           y="35.90493">Iceland</tspan></text></g><g
       id="EU_WesternEurope"><path
         id="EU_WesternEurope_p"
         style="opacity:1;fill:#22499c;fill-opacity:1;fill-rule:evenodd;stroke:none;stroke-width:0"
         d="m 99.717428,67.418107 0.328142,-2.885095 -0.74052,-0.479557 0.653707,-3.006535 0.08681,-0.914673 -0.914691,-0.784448 0.392224,-0.435633 -1.394747,-0.827856 -0.890901,-1.392163 c -0.496253,0.284735 -1.505587,0.863637 -1.538408,0.880049 -0.04357,0.02178 -0.696949,1.579664 -0.740523,1.601453 -0.04357,0.02178 -2.015381,-0.337964 -2.015381,-0.337964 l -0.416512,0.445451 0.153996,0.770496 -0.492993,0.83199 -0.923975,-0.0925 -1.078487,-0.555004 -0.985986,0.924491 0.276985,0.554488 -0.03049,0.770496 2.248958,1.601969 -0.369486,1.417485 0.215491,1.016992 -1.078487,0.83199 -0.708484,-0.431498 -1.447974,0.585494 -1.201994,-0.801501 -1.69447,1.602486 1.263489,2.002462 -0.400493,2.865458 -0.647505,0.894002 0.277502,0.800985 1.016992,0.12299 0.307992,1.109493 1.69447,0.0925 0.800985,-0.431498 0.308508,0.831991 1.170471,0.12299 0.831991,1.232483 2.033467,-1.725476 0.6165,-0.0925 -0.0925,-1.170471 1.447974,-0.893486 0.03101,-3.327962 -0.277502,-0.646989 0.862996,-0.585494 0.246497,-1.879472 0.739489,-0.307992 1.355473,0.646989 z" /><text
         xml:space="preserve"
         style="font-style:italic;font-variant:normal;font-weight:normal;font-stretch:normal;font-size:2.11667px;font-family:C059;-inkscape-font-specification:'C059 Italic';writing-mode:lr-tb;direction:ltr;fill:#000000;fill-opacity:1;stroke-width:0.264583"
         x="-15.869554"
         y="115.52754"
         id="text51"
         transform="rotate(-58.177858)"><tspan
           id="tspan51"
           style="stroke-width:0.264583"
           x="-15.869554"
           y="115.52754">Western Europe</tspan></text></g><g
       id="EU_SouthernEurope"><path
         id="EU_SouthernEurope_p"
         style="opacity:1;fill:#22499c;fill-opacity:1;fill-rule:evenodd;stroke:none;stroke-width:0"
         d="m 113.00861,56.970683 -0.23927,0.546736 -1.82986,2.091862 -0.13074,1.786455 -2.35334,0.174149 -0.26149,-1.350822 0.65371,-1.437638 -2.83239,0.217558 -0.47904,1.568896 -3.09386,0.566374 -1.48157,-0.610299 c 0,0 -0.44144,0.174376 -0.989084,0.388607 l -0.01292,0.134359 -0.653707,3.006535 0.740521,0.479557 -0.328143,2.885095 0.204121,-0.156579 1.078492,-0.03101 -0.062,1.016992 1.017,0.0615 0.21549,0.73949 1.35599,0.338997 0.185,0.95498 0.98599,1.447974 -0.37001,0.585494 0.12351,0.709001 -0.92449,0.739489 -0.5855,-0.709 -1.47898,-0.03049 1.54048,2.495455 h 0.58549 l 2.12597,-1.817977 0.2775,-2.495455 h 0.92449 l 0.98547,0.307991 -0.73949,-1.540474 -0.73897,-0.307992 -0.98598,-1.109493 -0.12351,-2.125968 0.89348,-0.0925 1.57148,1.848983 0.493,2.094962 1.01699,1.293978 0.98547,3.235462 0.709,0.246496 0.67799,-0.462504 1.10898,0.862997 0.678,-0.0925 -1.017,-1.263489 0.0615,-0.646989 0.49299,-0.83199 -0.70848,-0.954981 0.185,-0.677995 0.79375,0.04858 1.02423,-1.126546 -0.46251,-1.817977 1.55546,-1.286226 -0.0765,-0.993738 0.7705,-0.647506 -0.0925,-0.769979 0.57981,-0.95653 c -0.50337,-0.686875 -1.3808,-1.922667 -1.3808,-2.18643 v -2.464966 l -1.66398,-1.909961 z" /><text
         xml:space="preserve"
         style="font-style:italic;font-variant:normal;font-weight:normal;font-stretch:normal;font-size:2.11667px;font-family:C059;-inkscape-font-specification:'C059 Italic';text-align:center;writing-mode:lr-tb;direction:ltr;text-anchor:middle;display:inline;opacity:1;fill:#000000;fill-opacity:1;stroke-width:0.264583"
         x="110.67403"
         y="63.617958"
         id="text52"><tspan
           id="tspan52"
           style="stroke-width:0.264583"
           x="110.67403"
           y="63.617958">Southern</tspan><tspan
           style="stroke-width:0.264583"
           x="110.67403"
           y="66.263794"
           id="tspan53">Europe</tspan></text></g><g
       id="EU_NorthernEurope"><path
         id="EU_NorthernEurope_p"
         style="opacity:1;fill:#22499c;fill-opacity:1;fill-rule:evenodd;stroke:none;stroke-width:0"
         d="m 103.75749,43.474866 -1.13998,2.033467 0.41289,0.712618 0.0217,2.146123 -1.19786,1.285709 -0.83923,0.130742 -0.17415,1.132747 -1.28519,2.18953 -0.806152,0.152446 -0.163814,1.688786 -1.077971,1.590084 c 0,0 -0.107684,0.06174 -0.270267,0.155029 l 0.890901,1.392163 1.394747,0.827856 -0.392224,0.435633 0.91467,0.784448 -0.07389,0.780314 c 0.54764,-0.214231 0.98908,-0.388607 0.98908,-0.388607 l 1.48157,0.610299 3.09386,-0.566374 0.47904,-1.568896 2.83239,-0.217558 -0.65371,1.437638 0.26149,1.350822 2.35334,-0.174149 0.13074,-1.786455 1.82986,-2.091862 0.23927,-0.546736 -0.48525,0.03049 -0.24649,-1.047481 2.52646,-1.109493 0.30799,-2.957959 -0.73949,-1.355473 -0.12299,-2.464966 -2.52284,-1.879472 -0.57361,0.323495 -1.52549,-0.708484 -3.89744,1.201477 -0.64699,-0.708484 -0.709,-0.13901 0.0465,-1.231966 0.4005,-0.523999 z" /><text
         xml:space="preserve"
         style="font-style:italic;font-variant:normal;font-weight:normal;font-stretch:normal;font-size:2.11667px;font-family:C059;-inkscape-font-specification:'C059 Italic';text-align:center;writing-mode:lr-tb;direction:ltr;text-anchor:middle;fill:#000000;fill-opacity:1;stroke-width:0.264583"
         x="107.33807"
         y="52.027287"
         id="text54"><tspan
           id="tspan54"
           style="stroke-width:0.264583"
           x="107.33807"
           y="52.027287">Northern</tspan><tspan
           style="stroke-width:0.264583"
           x="107.33807"
           y="54.673122"
           id="tspan55">Europe</tspan></text></g><g
       id="EU_Russia"><path
         id="EU_Russia_p"
         style="opacity:1;fill:#22499c;fill-opacity:1;fill-rule:evenodd;stroke:none;stroke-width:0"
         d="m 139.09487,24.569043 -1.03095,0.81287 -1.48156,-0.675411 -1.15445,0.740524 -0.0873,0.74104 -1.06764,0.348299 -0.32659,-1.089339 -1.11105,0.109037 -2.61482,0.958598 -0.45734,1.002522 -1.22008,0.130742 -0.39223,1.39423 -0.76222,-0.130741 0.28318,-0.936894 -0.15244,-1.503268 -2.07016,-0.501261 0.10904,2.069641 0.26148,1.198377 -1.63401,0.719336 0.19637,0.914672 -1.04593,1.002523 -0.23978,-1.067635 -1.48156,-0.06563 0.47956,1.264006 -0.41393,0.675411 -1.26401,-0.08733 0.15245,-1.39423 -1.45934,-1.285709 0.56637,-0.697115 1.85208,-0.08733 0.23926,0.436149 1.72135,-0.109037 1.45986,-1.481563 -1.00253,-0.871265 -0.87126,-0.04393 0.30489,-0.588078 -2.28772,-0.109037 -1.39423,-1.089339 -1.67741,0.04341 -0.87489,0.318844 -0.016,-0.02067 -1.09192,1.706356 -0.13074,2.832385 0.78445,6.056995 -0.85111,1.509985 c 0.10268,-0.0042 0.16485,-0.0067 0.16485,-0.0067 l 0.69349,1.047482 -1.58698,1.093473 -1.75597,-0.38499 -0.0925,1.586984 1.00149,0.12299 0.35399,0.754992 -0.78548,1.031979 -0.863,-0.985987 -0.55449,-0.04599 -0.87798,2.387968 0.69298,0.939478 -0.12299,0.709 -0.38137,0.215491 2.52284,1.879472 0.12299,2.464966 0.73949,1.355473 -0.30799,2.957959 -2.52646,1.109493 0.24649,1.047481 0.98599,-0.06149 1.66398,1.909961 v 2.464966 c 0,0.369737 1.72548,2.649967 1.72548,2.649967 l 0.67748,-1.602486 1.35599,0.06201 0.86248,1.601969 1.84898,-1.540474 v -0.554488 h -0.55501 l -0.24649,-0.800985 1.54099,0.0615 1.60197,-1.109493 0.12299,1.478979 -1.35548,0.185002 -0.36948,1.478979 1.17047,0.431499 0.30851,1.232482 1.47846,-0.06201 0.4315,1.294494 1.10949,0.677478 -0.045,1.431954 0.29146,0.201022 0.98598,-0.184485 0.67748,0.400492 0.89349,-0.73949 0.83199,0.307992 0.37,-1.078487 0.84749,0.24598 0.1385,-1.015959 -0.493,-0.6165 0.61599,-0.677995 -0.30799,-0.985986 0.49299,-0.615983 -0.0615,-0.431498 -1.54099,-0.985987 -0.30799,-1.725476 -0.49299,-0.800984 0.4315,-1.60197 0.61753,-0.871781 0.0295,-1.439189 -0.493,-0.6165 0.339,-0.800984 -1.04748,-1.663465 c 0,0 0.89329,-0.616243 0.86248,-0.739489 -0.0308,-0.123245 -0.339,-1.694987 -0.339,-1.694987 l 1.50999,-0.12299 1.44797,-0.492993 1.01699,0.21549 0.49299,-0.985986 1.01648,0.277502 c 0,0 0.12345,0.400493 0.2775,0.400493 0.15406,0 2.06448,-0.708484 2.06448,-0.708484 l 2.09496,-2.548682 -0.3576,-1.644861 0.56637,-1.786454 -1.13326,-0.740523 -0.82786,-1.045931 0.56637,-2.266012 -0.69711,-0.435632 V 37.51709 l 0.65371,-1.002006 -0.3483,-3.006535 0.0434,-3.006535 1.002,-0.348816 1.17667,-3.965132 z" /><text
         xml:space="preserve"
         style="font-style:italic;font-variant:normal;font-weight:normal;font-stretch:normal;font-size:2.11667px;font-family:C059;-inkscape-font-specification:'C059 Italic';writing-mode:lr-tb;direction:ltr;fill:#000000;fill-opacity:1;stroke-width:0.264583"
         x="121.39701"
         y="45.229755"
         id="text56"><tspan
           id="tspan56"
           style="stroke-width:0.264583"
           x="121.39701"
           y="45.229755">Russia</tspan></text></g><g
       id="EU_Scandinavia"><path
         id="EU_Scandinavia_p"
         style="opacity:1;fill:#22499c;fill-opacity:1;fill-rule:evenodd;stroke:none;stroke-width:0"
         d="m 113.54036,23.940658 -0.863,0.307991 -0.67799,-0.153996 -0.58498,0.893486 -1.048,-0.0615 v 1.57148 l -1.66346,-0.03101 0.0615,0.954981 -0.89348,-1.047481 h -0.5855 l 0.0305,0.646988 -0.76998,0.554489 v 0.801501 l 0.76998,0.184485 -0.76998,0.185002 -0.031,0.770495 0.33899,0.800985 -0.70848,-0.985987 -0.709,0.86248 v 0.801502 l -0.43098,0.03049 -0.21601,0.6165 0.40049,0.400492 -0.92397,-0.216008 -0.4315,0.709001 0.40049,0.492993 -1.20148,-0.277502 0.18501,0.539502 -0.5085,0.276985 -0.0465,0.523999 -0.86248,0.477491 -0.185,0.461987 -1.09347,0.03101 -0.693501,2.04897 -0.431499,0.431499 0.153996,0.939477 0.352433,0.275436 0.915191,-0.359152 -0.74052,0.533818 0.15244,1.808158 0.67541,0.59893 0.63149,-0.250114 -0.0868,1.045414 1.11105,0.403077 c 0,0 0.72966,-0.750499 0.79426,-0.762228 2.4e-4,-2.3e-5 8.2e-4,0 10e-4,0 0.0545,0 0.67541,0.09767 0.67541,0.09767 l 0.64233,1.22008 1.18753,0.468705 -0.185,1.546676 1.1436,0.697115 0.69711,-0.06511 0.35967,-0.893486 c 0,0 0.75181,-0.59924 0.7736,-0.653707 0.0218,-0.05447 -0.22893,-1.742529 -0.22893,-1.742529 l 1.07849,-0.958598 -0.0873,-0.839225 0.49041,-0.17415 0.33745,-1.252636 -0.67644,-2.562118 0.26199,-1.33997 0.86248,-0.400492 0.524,-1.401982 1.30948,-0.153995 0.2465,1.093473 -0.84749,0.200504 -1.06299,1.370976 0.66249,2.772958 1.26349,0.0155 c 0,0 1.10924,-1.031979 1.23249,-1.031979 0.10069,0 1.36351,-0.05147 1.82211,-0.07028 l 0.85111,-1.509985 -0.78445,-6.056995 0.13074,-2.832385 1.09192,-1.706356 -0.63148,-0.81132 -0.64699,0.216008 v 0.554488 l -0.36949,-1.016992 -1.29397,0.554488 z" /><text
         xml:space="preserve"
         style="font-style:italic;font-variant:normal;font-weight:normal;font-stretch:normal;font-size:2.11667px;font-family:C059;-inkscape-font-specification:'C059 Italic';writing-mode:lr-tb;direction:ltr;fill:#000000;fill-opacity:1;stroke-width:0.264583"
         x="30.338577"
         y="107.54273"
         id="text57"
         transform="rotate(-53.997116)"><tspan
           id="tspan57"
           style="stroke-width:0.264583"
           x="30.338577"
           y="107.54273">Scandinavia</tspan></text></g><g
       id="NA_Alaska"><path
         id="NA_Alaska_p"
         style="opacity:1;fill:#ffec2a;fill-opacity:1;fill-rule:evenodd;stroke:none;stroke-width:0"
         d="m 28.033948,41.088448 1.853117,-1.834513 -0.893486,-0.431498 0.73949,-1.725477 -1.35599,-1.263488 0.03101,-2.464449 -1.417484,-2.21847 -2.279965,-0.123506 -0.246496,-2.618962 -0.246497,-2.372465 0.893486,-1.016992 -0.295589,-3.252515 -1.183391,-0.660425 -2.926953,-0.0925 -0.677995,-0.73949 -1.07797,-0.0615 0.06149,-0.769979 -1.139982,-0.338997 -5.114933,2.218469 0.955497,0.831474 -0.123507,1.663981 -1.447974,0.0615 -0.400492,0.370003 0.246497,0.677995 -0.677995,0.554488 0.924491,1.57148 0.893486,0.0925 -0.646989,0.215491 v 0.800985 l -0.709001,0.0925 -0.708484,-0.307991 -0.646989,0.12299 -0.277502,1.44849 -0.585494,0.492993 0.031006,0.923975 1.540474,0.462504 -0.369486,1.416968 0.430981,0.400492 1.201994,-0.400492 0.708484,0.585494 -0.708484,1.078487 -1.540474,1.047481 -0.154513,0.831991 1.047998,0.523999 1.016476,-1.139982 1.386478,-0.154513 2.557467,-2.125968 0.0925,-0.800985 1.324983,-0.769979 0.492994,0.523482 -0.985987,0.646989 0.554488,0.523999 1.139982,-0.523999 1.232483,0.585494 0.431499,-0.615983 -0.585494,-0.585494 0.646989,-0.185001 0.800984,0.370003 -0.708484,0.800985 1.47898,0.21549 0.800985,1.109493 0.985986,-0.462504 0.770495,0.185002 0.09199,1.201477 1.417484,0.985986 -0.554488,1.47898 z" /><text
         xml:space="preserve"
         style="font-style:italic;font-variant:normal;font-weight:normal;font-stretch:normal;font-size:2.11667px;font-family:C059;-inkscape-font-specification:'C059 Italic';writing-mode:lr-tb;direction:ltr;opacity:1;fill:#000000;fill-opacity:1;fill-rule:evenodd;stroke-width:0"
         x="15.225355"
         y="27.86618"
         id="text1"><tspan
           id="tspan1"
           style="font-style:italic;font-variant:normal;font-weight:normal;font-stretch:normal;font-size:2.11667px;font-family:C059;-inkscape-font-specification:'C059 Italic';fill:#000000;fill-opacity:1;stroke-width:0"
           x="15.225355"
           y="27.86618">Alaska</tspan></text></g><g
       id="NA_NorthwestTerritory"><path
         id="NA_NorthwestTerritory_p"
         style="display:inline;opacity:1;fill:#ffec2a;fill-opacity:1;fill-rule:evenodd;stroke:none;stroke-width:0"
         d="m 54.936698,16.946252 -1.262972,0.400493 -0.739489,-0.06149 -0.646989,0.492993 -0.185002,1.293978 -0.770496,-0.12299 -0.185001,3.203939 0.647506,0.370003 -0.462505,0.800985 -1.047481,-0.03049 -0.153996,-1.047998 h -1.386478 l -0.400493,0.893485 -0.216007,0.985986 -1.262972,0.123507 -1.324984,-0.770496 -1.540474,0.153996 -0.123507,1.324984 -1.601969,-1.016475 -1.293978,0.461987 -1.047998,-1.201477 -0.985987,-0.153996 -0.831473,-0.831991 -1.509986,-0.185001 -0.03101,-0.800985 -1.725476,0.12299 -1.293978,-0.461987 0.03101,1.57148 -0.770495,-0.646989 -0.523483,-0.0925 -0.616499,0.73949 -0.954981,0.0615 -0.893485,-0.431498 -0.831991,0.431498 -0.893485,-0.800985 -0.985987,0.276986 -0.924491,-0.708484 -1.232483,0.554488 -0.141593,-0.07906 0.295589,3.252515 -0.893486,1.016992 0.246497,2.372465 0.246496,2.618962 2.279965,0.123506 0.240295,0.375688 16.996895,1.02371 5.972762,-0.02945 0.330213,-0.599964 1.324984,-1.478979 -1.386479,-1.108977 1.540474,0.893486 1.078487,-0.646989 0.03049,-0.924491 -0.338998,-0.954981 0.492993,-0.0925 1.109493,0.954981 0.893486,-0.954981 1.971972,-0.677994 0.800985,-0.985987 -0.708484,-2.64945 -0.585494,-0.123507 -0.800984,1.355473 -0.862997,0.06201 v -0.646988 l -0.523482,-0.709001 -0.985986,0.185002 -0.123507,-1.47898 -1.047481,-0.677995 0.554488,-0.307991 0.246496,-1.725476 0.800985,-0.585494 -0.03049,-0.585494 0.985986,-0.523483 z" /><text
         xml:space="preserve"
         style="font-style:italic;font-variant:normal;font-weight:normal;font-stretch:normal;font-size:2.11667px;font-family:C059;-inkscape-font-specification:'C059 Italic';writing-mode:lr-tb;direction:ltr;opacity:1;fill:#000000;fill-opacity:1;fill-rule:evenodd;stroke-width:0"
         x="29.617897"
         y="27.700796"
         id="text2"><tspan
           id="tspan2"
           style="font-size:2.11667px;stroke-width:0"
           x="29.617897"
           y="27.700796">Northwest Territory</tspan></text></g></g></svg>
